<?xml version="1.0" encoding="utf-8"?>
<!-- Generator: Adobe Illustrator 26.0.1, SVG Export Plug-In . SVG Version: 6.00 Build 0)  -->
<svg version="1.1" id="Lager_1" xmlns="http://www.w3.org/2000/svg" xmlns:xlink="http://www.w3.org/1999/xlink" x="0px" y="0px"
	 viewBox="0 0 26.1 17.6" style="enable-background:new 0 0 26.1 17.6;" xml:space="preserve">
<style type="text/css">
	.st0{fill:#B79E4E;stroke:#000000;stroke-width:0.5;stroke-miterlimit:10;}
	.st1{fill:url(#SVGID_1_);}
	.st2{fill:#EACE59;stroke:#000000;stroke-width:0.5;stroke-miterlimit:10;}
	.st3{fill:#BA990F;}
	.st4{fill:none;stroke:#CCCC09;stroke-miterlimit:10;}
	.st5{fill:#CCCC09;}
</style>
<path id="Taco_Back" class="st0" d="M19.4,11.7c1.1-0.3,2.2-0.7,3.3-1.2c0.7-0.2,1.2-0.9,1-1.6c0,0,0,0,0-0.1
	c-0.5-2.5-5-6.1-12.2-3.4"/>
<g id="Polka_Salad">
	
		<linearGradient id="SVGID_1_" gradientUnits="userSpaceOnUse" x1="7200.0244" y1="-7168.7461" x2="7210.8779" y2="-7172.6978" gradientTransform="matrix(1 0 0 -1 -7187.96 -7163.6299)">
		<stop  offset="0" style="stop-color:#FFFFFF"/>
		<stop  offset="1.000000e-02" style="stop-color:#FFFBFB"/>
		<stop  offset="1.000000e-02" style="stop-color:#FEEEEF"/>
		<stop  offset="2.000000e-02" style="stop-color:#FCD9DA"/>
		<stop  offset="3.000000e-02" style="stop-color:#FABBBE"/>
		<stop  offset="3.000000e-02" style="stop-color:#F79599"/>
		<stop  offset="4.000000e-02" style="stop-color:#F3676C"/>
		<stop  offset="5.000000e-02" style="stop-color:#EF3038"/>
		<stop  offset="5.000000e-02" style="stop-color:#ED1C24"/>
		<stop  offset="6.000000e-02" style="stop-color:#F14B51"/>
		<stop  offset="6.000000e-02" style="stop-color:#F58186"/>
		<stop  offset="7.000000e-02" style="stop-color:#F9AEB1"/>
		<stop  offset="8.000000e-02" style="stop-color:#FBD1D3"/>
		<stop  offset="9.000000e-02" style="stop-color:#FDEBEB"/>
		<stop  offset="9.000000e-02" style="stop-color:#FFFAFA"/>
		<stop  offset="0.1" style="stop-color:#FFFFFF"/>
		<stop  offset="0.1" style="stop-color:#FEF0F0"/>
		<stop  offset="0.13" style="stop-color:#F57F83"/>
		<stop  offset="0.14" style="stop-color:#EF383F"/>
		<stop  offset="0.15" style="stop-color:#ED1C24"/>
		<stop  offset="0.16" style="stop-color:#F14B51"/>
		<stop  offset="0.16" style="stop-color:#F58186"/>
		<stop  offset="0.17" style="stop-color:#F9AEB1"/>
		<stop  offset="0.18" style="stop-color:#FBD1D3"/>
		<stop  offset="0.19" style="stop-color:#FDEBEB"/>
		<stop  offset="0.19" style="stop-color:#FFFAFA"/>
		<stop  offset="0.2" style="stop-color:#FFFFFF"/>
		<stop  offset="0.2" style="stop-color:#FEF0F0"/>
		<stop  offset="0.23" style="stop-color:#F57F83"/>
		<stop  offset="0.24" style="stop-color:#EF383F"/>
		<stop  offset="0.25" style="stop-color:#ED1C24"/>
		<stop  offset="0.26" style="stop-color:#F14B51"/>
		<stop  offset="0.26" style="stop-color:#F58186"/>
		<stop  offset="0.27" style="stop-color:#F9AEB1"/>
		<stop  offset="0.28" style="stop-color:#FBD1D3"/>
		<stop  offset="0.29" style="stop-color:#FDEBEB"/>
		<stop  offset="0.29" style="stop-color:#FFFAFA"/>
		<stop  offset="0.3" style="stop-color:#FFFFFF"/>
		<stop  offset="0.3" style="stop-color:#FEF0F0"/>
		<stop  offset="0.33" style="stop-color:#F57F83"/>
		<stop  offset="0.34" style="stop-color:#EF383F"/>
		<stop  offset="0.35" style="stop-color:#ED1C24"/>
		<stop  offset="0.36" style="stop-color:#F14B51"/>
		<stop  offset="0.36" style="stop-color:#F58186"/>
		<stop  offset="0.37" style="stop-color:#F9AEB1"/>
		<stop  offset="0.38" style="stop-color:#FBD1D3"/>
		<stop  offset="0.39" style="stop-color:#FDEBEB"/>
		<stop  offset="0.39" style="stop-color:#FFFAFA"/>
		<stop  offset="0.4" style="stop-color:#FFFFFF"/>
		<stop  offset="0.4" style="stop-color:#FEF0F0"/>
		<stop  offset="0.43" style="stop-color:#F57F83"/>
		<stop  offset="0.44" style="stop-color:#EF383F"/>
		<stop  offset="0.45" style="stop-color:#ED1C24"/>
		<stop  offset="0.46" style="stop-color:#F14B51"/>
		<stop  offset="0.46" style="stop-color:#F58186"/>
		<stop  offset="0.47" style="stop-color:#F9AEB1"/>
		<stop  offset="0.48" style="stop-color:#FBD1D3"/>
		<stop  offset="0.49" style="stop-color:#FDEBEB"/>
		<stop  offset="0.49" style="stop-color:#FFFAFA"/>
		<stop  offset="0.5" style="stop-color:#FFFFFF"/>
		<stop  offset="0.5" style="stop-color:#FEF0F0"/>
		<stop  offset="0.53" style="stop-color:#F57F83"/>
		<stop  offset="0.54" style="stop-color:#EF383F"/>
		<stop  offset="0.55" style="stop-color:#ED1C24"/>
		<stop  offset="0.56" style="stop-color:#F14B51"/>
		<stop  offset="0.56" style="stop-color:#F58186"/>
		<stop  offset="0.57" style="stop-color:#F9AEB1"/>
		<stop  offset="0.58" style="stop-color:#FBD1D3"/>
		<stop  offset="0.59" style="stop-color:#FDEBEB"/>
		<stop  offset="0.59" style="stop-color:#FFFAFA"/>
		<stop  offset="0.6" style="stop-color:#FFFFFF"/>
		<stop  offset="0.6" style="stop-color:#FEF0F0"/>
		<stop  offset="0.63" style="stop-color:#F57F83"/>
		<stop  offset="0.64" style="stop-color:#EF383F"/>
		<stop  offset="0.65" style="stop-color:#ED1C24"/>
		<stop  offset="0.66" style="stop-color:#F14B51"/>
		<stop  offset="0.66" style="stop-color:#F58186"/>
		<stop  offset="0.67" style="stop-color:#F9AEB1"/>
		<stop  offset="0.68" style="stop-color:#FBD1D3"/>
		<stop  offset="0.69" style="stop-color:#FDEBEB"/>
		<stop  offset="0.69" style="stop-color:#FFFAFA"/>
		<stop  offset="0.7" style="stop-color:#FFFFFF"/>
		<stop  offset="0.7" style="stop-color:#FEF0F0"/>
		<stop  offset="0.73" style="stop-color:#F57F83"/>
		<stop  offset="0.74" style="stop-color:#EF383F"/>
		<stop  offset="0.75" style="stop-color:#ED1C24"/>
		<stop  offset="0.76" style="stop-color:#F14B51"/>
		<stop  offset="0.76" style="stop-color:#F58186"/>
		<stop  offset="0.77" style="stop-color:#F9AEB1"/>
		<stop  offset="0.78" style="stop-color:#FBD1D3"/>
		<stop  offset="0.79" style="stop-color:#FDEBEB"/>
		<stop  offset="0.79" style="stop-color:#FFFAFA"/>
		<stop  offset="0.8" style="stop-color:#FFFFFF"/>
		<stop  offset="0.8" style="stop-color:#FEF0F0"/>
		<stop  offset="0.83" style="stop-color:#F57F83"/>
		<stop  offset="0.84" style="stop-color:#EF383F"/>
		<stop  offset="0.85" style="stop-color:#ED1C24"/>
		<stop  offset="0.86" style="stop-color:#F14B51"/>
		<stop  offset="0.86" style="stop-color:#F58186"/>
		<stop  offset="0.87" style="stop-color:#F9AEB1"/>
		<stop  offset="0.88" style="stop-color:#FBD1D3"/>
		<stop  offset="0.89" style="stop-color:#FDEBEB"/>
		<stop  offset="0.89" style="stop-color:#FFFAFA"/>
		<stop  offset="0.9" style="stop-color:#FFFFFF"/>
		<stop  offset="0.9" style="stop-color:#FEF0F0"/>
		<stop  offset="0.93" style="stop-color:#F57F83"/>
		<stop  offset="0.94" style="stop-color:#EF383F"/>
		<stop  offset="0.95" style="stop-color:#ED1C24"/>
		<stop  offset="0.96" style="stop-color:#F14B51"/>
		<stop  offset="0.96" style="stop-color:#F58186"/>
		<stop  offset="0.97" style="stop-color:#F9AEB1"/>
		<stop  offset="0.98" style="stop-color:#FBD1D3"/>
		<stop  offset="0.99" style="stop-color:#FDEBEB"/>
		<stop  offset="0.99" style="stop-color:#FFFAFA"/>
		<stop  offset="1" style="stop-color:#FFFFFF"/>
	</linearGradient>
	<path class="st1" d="M20.4,10.5c0.3,0.4,0.9,0.6,1.4,0.4c0.9-0.4,1-1.2,0.3-1.5c0.1-0.7,0.5-1.7-0.6-2.1c-0.6-0.9-0.5-1.6-2.3-1.6
		c-0.6-0.9-1.5-1.2-2.2-0.7c-0.8-0.6-1.1-0.8-1.8-0.4c-0.9-0.5-1.9-0.2-1.9,0.4c-1,0-1.2,0-1.2,0.4"/>
	
		<image style="display:none;overflow:visible;enable-background:new    ;" width="12" height="8" xlink:href="2FBDFA11F2F265AF.png"  transform="matrix(1 0 0 1 11.54 3.87)">
	</image>
</g>
<path id="Taco_Front" class="st2" d="M5.5,15c1,0.1,4.4-0.7,7.2-1.2c5.6-1.7,7-1.4,7.7-3.3c0.9-2.4-2.9-5.7-8.8-5.1
	C6.9,6,5.2,7.3,4,9.7C3.3,11.1,2.3,14.5,5.5,15z"/>
<g id="Dots">
	<circle class="st3" cx="7.9" cy="8.6" r="0.2"/>
	<circle class="st3" cx="10.8" cy="8.8" r="0.2"/>
	<circle class="st3" cx="17.9" cy="10.6" r="0.2"/>
	<circle class="st3" cx="9.5" cy="6.8" r="0.2"/>
	<circle class="st3" cx="13.8" cy="11.7" r="0.2"/>
	<circle class="st3" cx="17.3" cy="8.6" r="0.2"/>
	<circle class="st3" cx="5.8" cy="12.5" r="0.2"/>
	<circle class="st3" cx="9" cy="10.4" r="0.2"/>
	<circle class="st3" cx="5.8" cy="10" r="0.2"/>
	<circle class="st3" cx="11.5" cy="7.2" r="0.2"/>
	<circle class="st3" cx="14.3" cy="7" r="0.2"/>
	<circle class="st3" cx="15.6" cy="10.2" r="0.2"/>
	<circle class="st3" cx="11.7" cy="11" r="0.2"/>
	<circle class="st3" cx="8.6" cy="12.3" r="0.2"/>
	<circle class="st3" cx="14.5" cy="8.6" r="0.2"/>
</g>
<path class="st4" d="M5.6,3.7C2,5.9-0.1,9.1,0.6,12c1,4.2,7.3,6.3,14.2,4.6s11.6-6.3,10.6-10.5c-0.5-2.3-3.4-4-6.4-4.7"/>
<path class="st5" d="M6.9,1.9L6.7,2L6.5,2.1c0,0,0,0,0,0.1c0,0,0,0.1,0,0.1l0.4,1.1c0,0.1,0,0.1,0,0.2c0,0.1-0.1,0.1-0.2,0.1H6.7
	c0,0,0,0-0.1,0l0,0c0,0,0,0,0-0.1L6.2,2.4l0,0l0,0L6.1,2.4L6,2.5L5.9,2.6H5.8c0,0-0.1,0-0.1,0c0,0-0.1,0-0.1,0L5.5,2.5
	c0,0,0-0.1,0-0.1c0,0,0.1,0,0.1,0h0.2L6,2.3l0.2-0.1l0.3-0.1l0.2-0.1h0.1L6.9,1.9C6.9,1.9,6.9,1.9,6.9,1.9C7,1.9,7,1.9,7,2
	C7,2,7,2,7,2c0,0,0,0,0,0.1H7L6.9,1.9z"/>
<path class="st5" d="M9,2.6c0,0.1,0,0.1,0,0.2c0,0,0,0.1,0,0.1c0,0,0,0.1-0.1,0.1c0,0-0.1,0-0.1,0H8.7c0,0-0.1,0-0.1,0
	c0,0-0.1,0.1-0.1,0.1L8.2,3.2H8H7.9c0,0-0.1,0-0.1-0.1c0,0-0.1-0.1-0.1-0.1C7.6,2.7,7.8,2.5,8.3,2.3l0,0c0-0.1,0-0.1-0.1-0.1
	c0,0-0.1,0-0.1,0C8,2.2,7.9,2.2,7.9,2.3c0,0.1-0.1,0.1-0.2,0.1c-0.1,0-0.2,0-0.2,0c0,0,0.1,0,0.1-0.1c0,0,0-0.1,0.1-0.1
	c0-0.1,0.1-0.1,0.1-0.1C7.8,2,7.9,2,8,2c0.1,0,0.2,0,0.2,0C8.3,2,8.3,2,8.4,2c0.1,0,0.1,0.1,0.1,0.1c0,0.1,0.1,0.1,0.1,0.2
	c0,0.1,0,0.1,0,0.2c0,0.1,0,0.1,0,0.2c0,0,0,0.1,0,0.1h0c0,0,0.1,0,0.1,0C9,2.8,9,2.7,9,2.6z M8.3,2.4L8.2,2.5L8.1,2.6
	C8,2.6,8,2.7,8,2.7c0,0.1,0,0.1,0,0.2C8,2.9,8,3,8.1,3c0,0,0.1,0,0.1,0c0,0,0.1,0,0.1-0.1c0,0,0.1-0.1,0.1-0.1L8.3,2.4z"/>
<path class="st5" d="M10.1,2.1C10.1,2.1,10.1,2.1,10.1,2.1c0,0.1,0,0.1,0,0.1c0,0.1,0,0.1,0,0.2c0,0.1,0,0.1-0.1,0.2L9.9,2.7
	c-0.1,0-0.1,0.1-0.2,0.1c-0.1,0-0.2,0-0.2,0c-0.1,0-0.2,0-0.2-0.1c-0.1,0-0.1-0.1-0.2-0.2C9,2.5,9,2.4,8.9,2.3c0-0.1,0-0.2,0-0.3
	c0-0.1,0-0.2,0.1-0.2c0-0.1,0.1-0.1,0.1-0.2c0.1,0,0.1-0.1,0.2-0.1h0.1h0.1h0.1h0.1h0.1c0,0,0.1,0,0.1,0l0,0c0,0.1-0.1,0.2-0.2,0.2
	H9.7H9.6H9.5c0,0-0.1,0-0.1,0c-0.1,0-0.2,0.1-0.2,0.2c0,0.1,0,0.2,0,0.4c0,0.1,0.1,0.2,0.2,0.3c0.1,0.1,0.2,0.1,0.3,0.1
	c0,0,0.1,0,0.1-0.1l0.1-0.1c0-0.1,0.1-0.1,0.1-0.2C10,2.2,10.1,2.1,10.1,2.1z"/>
<path class="st5" d="M11.6,1.7c0,0.1,0,0.2,0,0.3c0,0.1,0,0.2-0.1,0.2c0,0.1-0.1,0.1-0.2,0.2c-0.1,0-0.2,0.1-0.2,0.1
	c-0.1,0-0.2,0-0.3,0c-0.1,0-0.2,0-0.2-0.1c-0.1,0-0.1-0.1-0.2-0.2c-0.1-0.1-0.1-0.2-0.1-0.2c0-0.1,0-0.2,0-0.3c0-0.1,0-0.2,0.1-0.2
	c0-0.1,0.1-0.1,0.2-0.2c0.2-0.1,0.3-0.1,0.5-0.1c0.1,0,0.2,0,0.2,0.1c0.1,0.1,0.1,0.1,0.2,0.2C11.6,1.5,11.6,1.6,11.6,1.7z
	 M11.3,1.7c0-0.1,0-0.1,0-0.2l-0.1-0.1c0,0-0.1-0.1-0.1-0.1c0,0-0.1,0-0.1,0c-0.1,0-0.1,0-0.1,0.1c0,0-0.1,0.1-0.1,0.1
	c0,0,0,0.1,0,0.1c0,0.1,0,0.1,0,0.2c0,0.1,0,0.1,0.1,0.2c0,0,0.1,0.1,0.1,0.1c0,0,0.1,0.1,0.1,0.1c0,0,0.1,0,0.1,0
	c0.1,0,0.1,0,0.1-0.1c0,0,0.1-0.1,0.1-0.1c0-0.1,0-0.1,0-0.2C11.3,1.8,11.3,1.8,11.3,1.7L11.3,1.7z"/>
<path class="st5" d="M13,1.9C13.1,1.9,13,2,13,2c-0.1,0-0.1,0.1-0.2,0.1h-0.1l0,0h0.1c0,0,0,0,0-0.1l-0.1-0.6c0-0.1,0-0.2-0.1-0.2
	c0-0.1-0.1-0.1-0.1-0.1c0,0-0.1,0-0.1,0.1c-0.1,0-0.1,0.1-0.1,0.2l0.1,0.7c0,0.1,0,0.1,0,0.2c0,0.1-0.1,0.1-0.1,0.1h-0.1
	c0,0,0-0.1,0-0.1L12,1.4c0-0.1,0-0.1-0.1-0.2c0-0.1-0.1-0.1-0.1-0.1h0.1h0.1c0.1,0,0.1,0,0.2,0c0.1,0,0.1,0,0.1,0.1
	c0-0.1,0.1-0.1,0.1-0.1C12.4,1,12.5,1,12.5,1c0.1,0,0.3,0,0.4,0.1L13,1.1L13.1,1l0.1,0h0.1c0.1,0,0.2,0,0.3,0.1
	c0.1,0.1,0.1,0.2,0.1,0.4l0.1,0.5c0,0.1,0,0.1-0.1,0.2c-0.1,0-0.1,0.1-0.2,0.1c0,0,0,0-0.1,0c0,0,0,0,0,0c0,0,0,0,0.1,0
	c0,0,0,0,0-0.1l-0.1-0.6c0-0.1,0-0.2-0.1-0.2c0-0.1-0.1-0.1-0.1-0.1c0,0-0.1,0-0.1,0c-0.1,0-0.1,0.1-0.1,0.1c0,0.1,0,0.1,0,0.2
	L13,1.9z"/>
<path class="st5" d="M14,1c0-0.1,0-0.2,0-0.2c0,0,0-0.1-0.1-0.1H14h0.1c0.1,0,0.1,0,0.2,0c0.1,0,0.1,0.1,0.1,0.2v0.2l0.1,0.6
	c0,0.1,0,0.1,0,0.2c-0.1,0-0.1,0.1-0.2,0.1H14c0,0,0,0,0,0c0,0,0,0,0.1,0c0,0,0,0,0-0.1L14,1z M14.3,0.3C14.3,0.3,14.3,0.3,14.3,0.3
	c0,0.1,0,0.1,0,0.1l-0.1,0h-0.1c0,0-0.1,0-0.1,0c0,0-0.1-0.1-0.1-0.1c0,0,0-0.1,0-0.1c0,0,0,0,0-0.1c0,0,0,0,0.1-0.1h0.1
	c0,0,0.1,0,0.1,0C14.3,0.2,14.3,0.2,14.3,0.3L14.3,0.3z"/>
<path class="st5" d="M15.9,1.6c0,0.1,0,0.1-0.1,0.2c-0.1,0-0.1,0.1-0.2,0.1h-0.1h0c0,0,0,0,0.1,0c0,0,0,0,0-0.1V1.2c0,0,0-0.1,0-0.1
	V0.9c0,0,0-0.1-0.1-0.1c0,0-0.1,0-0.1,0h-0.1l-0.1,0c0,0,0,0-0.1,0.1c0,0,0,0.1,0,0.1l0,0.7c0,0.1,0,0.1,0,0.2c0,0-0.1,0.1-0.1,0.1
	c0,0,0,0-0.1,0c0,0,0-0.1,0-0.1l-0.1-0.8c0-0.1,0-0.2,0-0.2c0-0.1-0.1-0.1-0.1-0.1h0.1h0.1c0.1,0,0.1,0,0.2,0c0.1,0,0.1,0.1,0.1,0.1
	c0-0.1,0.1-0.1,0.1-0.1c0.1,0,0.1-0.1,0.2-0.1c0.1,0,0.3,0,0.4,0.1C16,0.9,16,1.1,16,1.2L15.9,1.6z"/>
<path class="st5" d="M16.4,0.1c0-0.1-0.1-0.1-0.1-0.1h0.1h0.2c0,0,0.1,0,0.1,0c0,0,0.1,0,0.1,0.1c0,0,0,0.1,0,0.1v0.1l0,0v0.2h0.1
	h0.2h0.1c0,0,0,0,0,0c0,0,0,0,0,0.1c0,0,0,0.1,0,0.1h-0.1L17,0.7l-0.1,0.1l0,0l0.1-0.1h-0.1h-0.1v0.6c0,0,0,0.1,0,0.1
	c0,0,0,0.1,0,0.1h0.1H17c0,0,0.1,0,0.1-0.1c0,0,0,0.1,0,0.1l-0.1,0.1h-0.1h-0.1c0,0-0.1,0-0.1,0c0,0-0.1,0-0.1-0.1
	c0,0-0.1-0.1-0.1-0.1c0-0.1,0-0.1,0-0.2V0.7h-0.1c0,0-0.1,0-0.1,0c0,0-0.1-0.1-0.1-0.2c0.1,0,0.1,0,0.2,0h0.2V0.4
	C16.4,0.3,16.4,0.2,16.4,0.1z"/>
<path class="st5" d="M18.4,1.4c0,0.1,0,0.1,0,0.2c0,0-0.1,0.1-0.1,0.1l-0.2,0c-0.1,0-0.1,0-0.2,0h-0.2c0,0-0.1,0-0.1-0.1
	c0,0-0.1-0.1-0.1-0.1c0,0,0-0.1,0-0.1c0,0,0,0,0-0.1c0,0,0-0.1,0-0.1c0,0,0,0.1,0.1,0.1c0,0,0.1,0.1,0.1,0.1c0,0,0.1,0.1,0.1,0.1
	h0.1c0.1,0,0.1,0,0.2,0c0.1,0,0.1-0.1,0.1-0.1c0-0.1-0.1-0.2-0.1-0.2l-0.2-0.1L17.6,1c0,0-0.1-0.1-0.1-0.1c0,0,0-0.1,0-0.1
	c0,0,0-0.1,0-0.1c0,0,0-0.1,0.1-0.1l0.1-0.1h0.2H18h0.1h0.1h0.1c0,0,0,0,0.1,0h0.1c0,0.1-0.1,0.1-0.1,0.2c0,0-0.1,0.1-0.1,0.1h-0.1
	H18H18h-0.1c0,0-0.1,0-0.1,0c0,0,0,0.1,0,0.1c0,0,0,0.1,0,0.1c0,0,0,0.1,0.1,0.1L17.9,1H18l0.1,0.1l0.1,0.1c0,0,0.1,0.1,0.1,0.1
	C18.4,1.3,18.4,1.4,18.4,1.4z"/>
</svg>
