<?xml version="1.0" encoding="utf-8"?>
<!-- Generator: Adobe Illustrator 26.0.1, SVG Export Plug-In . SVG Version: 6.00 Build 0)  -->
<svg version="1.1" id="Lager_1" xmlns="http://www.w3.org/2000/svg" xmlns:xlink="http://www.w3.org/1999/xlink" x="0px" y="0px"
	 viewBox="0 0 14400 14400" style="enable-background:new 0 0 14400 14400;" xml:space="preserve">
<style type="text/css">
	.st0{fill:#B79E4E;stroke:#000000;stroke-width:0.5;stroke-miterlimit:10;}
	.st1{fill:url(#Polka_Salad_00000114764416126727944630000007571078321522642089_);}
	.st2{fill:#EACE59;stroke:#000000;stroke-width:0.5;stroke-miterlimit:10;}
	.st3{fill:#BA990F;}
	.st4{fill:none;stroke:#CCCC09;stroke-miterlimit:10;}
	.st5{fill:#CCCC09;}
</style>
<g>
	<path id="Taco_Back" class="st0" d="M7206.16,7201.45c1.04-0.22,3.28-1.23,3.28-1.23c0.88-0.28,1.18-0.88,1.03-1.65
		c-0.48-2.48-5.05-6.06-12.21-3.42"/>
	
		<linearGradient id="Polka_Salad_00000034800163615112620940000011385943418406448263_" gradientUnits="userSpaceOnUse" x1="7198.7939" y1="7194.8252" x2="7209.6436" y2="7198.7739">
		<stop  offset="0" style="stop-color:#FFFFFF"/>
		<stop  offset="6.270343e-03" style="stop-color:#FFFBFB"/>
		<stop  offset="0.0129" style="stop-color:#FEEEEF"/>
		<stop  offset="0.0197" style="stop-color:#FCD9DA"/>
		<stop  offset="0.0266" style="stop-color:#FABBBE"/>
		<stop  offset="0.0336" style="stop-color:#F79599"/>
		<stop  offset="0.0406" style="stop-color:#F3676C"/>
		<stop  offset="0.0476" style="stop-color:#EF3038"/>
		<stop  offset="0.05" style="stop-color:#ED1C24"/>
		<stop  offset="0.0564" style="stop-color:#F14B51"/>
		<stop  offset="0.0648" style="stop-color:#F58186"/>
		<stop  offset="0.0729" style="stop-color:#F9AEB1"/>
		<stop  offset="0.0807" style="stop-color:#FBD1D3"/>
		<stop  offset="0.088" style="stop-color:#FDEBEB"/>
		<stop  offset="0.0946" style="stop-color:#FFFAFA"/>
		<stop  offset="0.1" style="stop-color:#FFFFFF"/>
		<stop  offset="0.1031" style="stop-color:#FEF0F0"/>
		<stop  offset="0.1265" style="stop-color:#F57F83"/>
		<stop  offset="0.1426" style="stop-color:#EF383F"/>
		<stop  offset="0.15" style="stop-color:#ED1C24"/>
		<stop  offset="0.1564" style="stop-color:#F14B51"/>
		<stop  offset="0.1648" style="stop-color:#F58186"/>
		<stop  offset="0.1729" style="stop-color:#F9AEB1"/>
		<stop  offset="0.1807" style="stop-color:#FBD1D3"/>
		<stop  offset="0.188" style="stop-color:#FDEBEB"/>
		<stop  offset="0.1946" style="stop-color:#FFFAFA"/>
		<stop  offset="0.2" style="stop-color:#FFFFFF"/>
		<stop  offset="0.2031" style="stop-color:#FEF0F0"/>
		<stop  offset="0.2265" style="stop-color:#F57F83"/>
		<stop  offset="0.2426" style="stop-color:#EF383F"/>
		<stop  offset="0.25" style="stop-color:#ED1C24"/>
		<stop  offset="0.2564" style="stop-color:#F14B51"/>
		<stop  offset="0.2648" style="stop-color:#F58186"/>
		<stop  offset="0.2729" style="stop-color:#F9AEB1"/>
		<stop  offset="0.2807" style="stop-color:#FBD1D3"/>
		<stop  offset="0.288" style="stop-color:#FDEBEB"/>
		<stop  offset="0.2946" style="stop-color:#FFFAFA"/>
		<stop  offset="0.3" style="stop-color:#FFFFFF"/>
		<stop  offset="0.3031" style="stop-color:#FEF0F0"/>
		<stop  offset="0.3265" style="stop-color:#F57F83"/>
		<stop  offset="0.3426" style="stop-color:#EF383F"/>
		<stop  offset="0.35" style="stop-color:#ED1C24"/>
		<stop  offset="0.3564" style="stop-color:#F14B51"/>
		<stop  offset="0.3648" style="stop-color:#F58186"/>
		<stop  offset="0.3729" style="stop-color:#F9AEB1"/>
		<stop  offset="0.3807" style="stop-color:#FBD1D3"/>
		<stop  offset="0.388" style="stop-color:#FDEBEB"/>
		<stop  offset="0.3946" style="stop-color:#FFFAFA"/>
		<stop  offset="0.4" style="stop-color:#FFFFFF"/>
		<stop  offset="0.4031" style="stop-color:#FEF0F0"/>
		<stop  offset="0.4265" style="stop-color:#F57F83"/>
		<stop  offset="0.4426" style="stop-color:#EF383F"/>
		<stop  offset="0.45" style="stop-color:#ED1C24"/>
		<stop  offset="0.4564" style="stop-color:#F14B51"/>
		<stop  offset="0.4648" style="stop-color:#F58186"/>
		<stop  offset="0.4729" style="stop-color:#F9AEB1"/>
		<stop  offset="0.4807" style="stop-color:#FBD1D3"/>
		<stop  offset="0.488" style="stop-color:#FDEBEB"/>
		<stop  offset="0.4946" style="stop-color:#FFFAFA"/>
		<stop  offset="0.5" style="stop-color:#FFFFFF"/>
		<stop  offset="0.5031" style="stop-color:#FEF0F0"/>
		<stop  offset="0.5265" style="stop-color:#F57F83"/>
		<stop  offset="0.5426" style="stop-color:#EF383F"/>
		<stop  offset="0.55" style="stop-color:#ED1C24"/>
		<stop  offset="0.5564" style="stop-color:#F14B51"/>
		<stop  offset="0.5648" style="stop-color:#F58186"/>
		<stop  offset="0.5729" style="stop-color:#F9AEB1"/>
		<stop  offset="0.5807" style="stop-color:#FBD1D3"/>
		<stop  offset="0.588" style="stop-color:#FDEBEB"/>
		<stop  offset="0.5946" style="stop-color:#FFFAFA"/>
		<stop  offset="0.6" style="stop-color:#FFFFFF"/>
		<stop  offset="0.6031" style="stop-color:#FEF0F0"/>
		<stop  offset="0.6265" style="stop-color:#F57F83"/>
		<stop  offset="0.6426" style="stop-color:#EF383F"/>
		<stop  offset="0.65" style="stop-color:#ED1C24"/>
		<stop  offset="0.6564" style="stop-color:#F14B51"/>
		<stop  offset="0.6648" style="stop-color:#F58186"/>
		<stop  offset="0.6729" style="stop-color:#F9AEB1"/>
		<stop  offset="0.6807" style="stop-color:#FBD1D3"/>
		<stop  offset="0.688" style="stop-color:#FDEBEB"/>
		<stop  offset="0.6946" style="stop-color:#FFFAFA"/>
		<stop  offset="0.7" style="stop-color:#FFFFFF"/>
		<stop  offset="0.7031" style="stop-color:#FEF0F0"/>
		<stop  offset="0.7265" style="stop-color:#F57F83"/>
		<stop  offset="0.7426" style="stop-color:#EF383F"/>
		<stop  offset="0.75" style="stop-color:#ED1C24"/>
		<stop  offset="0.7564" style="stop-color:#F14B51"/>
		<stop  offset="0.7648" style="stop-color:#F58186"/>
		<stop  offset="0.7729" style="stop-color:#F9AEB1"/>
		<stop  offset="0.7807" style="stop-color:#FBD1D3"/>
		<stop  offset="0.788" style="stop-color:#FDEBEB"/>
		<stop  offset="0.7946" style="stop-color:#FFFAFA"/>
		<stop  offset="0.8" style="stop-color:#FFFFFF"/>
		<stop  offset="0.8031" style="stop-color:#FEF0F0"/>
		<stop  offset="0.8265" style="stop-color:#F57F83"/>
		<stop  offset="0.8426" style="stop-color:#EF383F"/>
		<stop  offset="0.85" style="stop-color:#ED1C24"/>
		<stop  offset="0.8564" style="stop-color:#F14B51"/>
		<stop  offset="0.8648" style="stop-color:#F58186"/>
		<stop  offset="0.8729" style="stop-color:#F9AEB1"/>
		<stop  offset="0.8807" style="stop-color:#FBD1D3"/>
		<stop  offset="0.888" style="stop-color:#FDEBEB"/>
		<stop  offset="0.8946" style="stop-color:#FFFAFA"/>
		<stop  offset="0.9" style="stop-color:#FFFFFF"/>
		<stop  offset="0.9031" style="stop-color:#FEF0F0"/>
		<stop  offset="0.9265" style="stop-color:#F57F83"/>
		<stop  offset="0.9426" style="stop-color:#EF383F"/>
		<stop  offset="0.95" style="stop-color:#ED1C24"/>
		<stop  offset="0.9564" style="stop-color:#F14B51"/>
		<stop  offset="0.9648" style="stop-color:#F58186"/>
		<stop  offset="0.9729" style="stop-color:#F9AEB1"/>
		<stop  offset="0.9807" style="stop-color:#FBD1D3"/>
		<stop  offset="0.988" style="stop-color:#FDEBEB"/>
		<stop  offset="0.9946" style="stop-color:#FFFAFA"/>
		<stop  offset="1" style="stop-color:#FFFFFF"/>
	</linearGradient>
	<path id="Polka_Salad" style="fill:url(#Polka_Salad_00000034800163615112620940000011385943418406448263_);" d="M7207.07,7200.21
		c0,0,0.48,0.72,1.43,0.37s0.95-1.2,0.32-1.55c0.14-0.7,0.45-1.72-0.65-2.15c-0.58-0.92-0.47-1.65-2.3-1.58
		c-0.64-0.86-1.48-1.2-2.18-0.67c-0.77-0.6-1.09-0.77-1.79-0.4c-0.92-0.48-1.86-0.19-1.93,0.41c-1.02,0-1.17,0.03-1.18,0.35"/>
	<path id="Taco_Front" class="st2" d="M7192.21,7204.7c0.97,0.13,4.36-0.68,7.18-1.2c5.63-1.69,6.99-1.37,7.69-3.29
		c0.87-2.39-2.88-5.73-8.81-5.06c-4.65,0.53-6.34,1.87-7.5,4.23C7190.02,7200.84,7189,7204.25,7192.21,7204.7z"/>
	<g id="Dots">
		<circle class="st3" cx="7194.6" cy="7198.29" r="0.22"/>
		<circle class="st3" cx="7197.5" cy="7198.52" r="0.22"/>
		<circle class="st3" cx="7204.61" cy="7200.33" r="0.22"/>
		<circle class="st3" cx="7196.21" cy="7196.51" r="0.22"/>
		<circle class="st3" cx="7200.56" cy="7201.45" r="0.22"/>
		<circle class="st3" cx="7204.01" cy="7198.29" r="0.22"/>
		<circle class="st3" cx="7192.57" cy="7202.2" r="0.22"/>
		<circle class="st3" cx="7195.74" cy="7200.11" r="0.22"/>
		<circle class="st3" cx="7192.57" cy="7199.67" r="0.22"/>
		<circle class="st3" cx="7198.25" cy="7196.95" r="0.22"/>
		<circle class="st3" cx="7201" cy="7196.73" r="0.22"/>
		<circle class="st3" cx="7202.27" cy="7199.89" r="0.22"/>
		<circle class="st3" cx="7198.47" cy="7200.67" r="0.22"/>
		<circle class="st3" cx="7195.3" cy="7201.98" r="0.22"/>
		<circle class="st3" cx="7201.22" cy="7198.29" r="0.22"/>
	</g>
	<path class="st4" d="M7192.35,7193.42c-3.61,2.2-5.68,5.35-4.99,8.24c0.99,4.19,7.34,6.27,14.2,4.65
		c6.85-1.62,11.6-6.32,10.61-10.51c-0.54-2.3-3.37-3.97-6.35-4.73"/>
	<g>
		<g>
			<path class="st5" d="M7193.66,7191.64c-0.07,0.01-0.14,0.04-0.2,0.06c-0.07,0.02-0.13,0.05-0.2,0.08c0,0.02,0.01,0.05,0.02,0.08
				c0.01,0.03,0.02,0.07,0.03,0.12c0.16,0.44,0.24,0.66,0.4,1.11c0.03,0.07,0.02,0.13-0.01,0.19c-0.03,0.05-0.09,0.09-0.16,0.12
				c-0.02,0.01-0.05,0.01-0.07,0.01c-0.02,0-0.04-0.01-0.06-0.03c0.02-0.01,0.04-0.02,0.06-0.04s0.02-0.05,0-0.09
				c-0.18-0.49-0.27-0.73-0.45-1.22c-0.01-0.02-0.01-0.03-0.02-0.05s-0.01-0.03-0.02-0.05c-0.04,0.02-0.08,0.05-0.12,0.07
				c-0.04,0.02-0.08,0.05-0.11,0.08c-0.02,0.01-0.04,0.04-0.08,0.06c-0.03,0.02-0.06,0.04-0.09,0.05c-0.03,0.01-0.07,0.02-0.1,0.01
				c-0.03,0-0.06-0.02-0.09-0.04c-0.03-0.02-0.05-0.04-0.07-0.07c-0.02-0.03-0.04-0.06-0.05-0.1c0.04,0.02,0.1,0.02,0.15,0.01
				c0.06-0.01,0.11-0.02,0.17-0.05s0.12-0.05,0.18-0.08c0.06-0.03,0.12-0.06,0.18-0.09c0.08-0.04,0.17-0.09,0.25-0.14
				c0.08-0.05,0.16-0.1,0.24-0.15c0.01-0.01,0.04-0.02,0.07-0.04c0.03-0.02,0.07-0.04,0.11-0.05c0.04-0.01,0.08-0.02,0.12-0.01
				c0.04,0,0.06,0.03,0.07,0.07c0.01,0.02,0.01,0.05,0,0.07c-0.01,0.02-0.02,0.04-0.04,0.06c-0.02,0.02-0.04,0.03-0.06,0.04
				C7193.71,7191.63,7193.68,7191.63,7193.66,7191.64z"/>
			<path class="st5" d="M7195.68,7192.33c0.02,0.06,0.03,0.11,0.03,0.16c0,0.05-0.01,0.09-0.02,0.12c-0.02,0.03-0.04,0.06-0.07,0.08
				c-0.03,0.02-0.06,0.04-0.09,0.05c-0.04,0.01-0.09,0.02-0.13,0.02c-0.04,0-0.09-0.01-0.14-0.04c-0.04,0.05-0.08,0.09-0.13,0.12
				c-0.05,0.03-0.11,0.05-0.18,0.08c-0.06,0.02-0.11,0.03-0.17,0.03c-0.05,0-0.1-0.01-0.15-0.03c-0.04-0.02-0.08-0.04-0.12-0.08
				c-0.03-0.03-0.06-0.08-0.08-0.13c-0.11-0.32,0.08-0.57,0.58-0.74c0-0.01-0.01-0.02-0.01-0.03c-0.02-0.06-0.05-0.11-0.09-0.14
				c-0.04-0.03-0.08-0.04-0.13-0.03c-0.07,0.02-0.12,0.06-0.16,0.11c-0.05,0.08-0.11,0.12-0.17,0.14c-0.08,0.02-0.16,0.01-0.24-0.04
				c0.04-0.02,0.08-0.04,0.1-0.07c0.02-0.02,0.04-0.05,0.06-0.09c0.03-0.06,0.07-0.11,0.12-0.15c0.06-0.04,0.13-0.08,0.21-0.1
				c0.09-0.03,0.17-0.04,0.23-0.03c0.07,0.01,0.13,0.03,0.18,0.06c0.05,0.03,0.09,0.08,0.13,0.14c0.03,0.06,0.06,0.13,0.09,0.21
				c0.02,0.06,0.04,0.13,0.05,0.2c0.01,0.07,0.03,0.14,0.05,0.22c0.01,0.05,0.03,0.08,0.04,0.1c0.02,0.02,0.03,0.03,0.05,0.03
				c0.04,0,0.07-0.01,0.09-0.04C7195.65,7192.45,7195.67,7192.4,7195.68,7192.33z M7195.07,7192.16c-0.06,0.02-0.11,0.04-0.16,0.07
				c-0.05,0.03-0.1,0.06-0.13,0.1c-0.04,0.04-0.06,0.08-0.08,0.13c-0.01,0.05-0.01,0.1,0.01,0.16c0.02,0.05,0.05,0.09,0.09,0.11
				c0.04,0.02,0.09,0.02,0.15,0c0.04-0.01,0.08-0.04,0.13-0.07c0.05-0.03,0.08-0.08,0.1-0.14
				C7195.13,7192.37,7195.11,7192.3,7195.07,7192.16z"/>
			<path class="st5" d="M7196.84,7191.76c0.01,0.03,0.03,0.05,0.04,0.08c0.01,0.02,0.02,0.05,0.02,0.07c0.02,0.08,0.02,0.15,0,0.21
				c-0.02,0.06-0.05,0.12-0.09,0.17c-0.04,0.05-0.09,0.09-0.14,0.12c-0.06,0.03-0.11,0.05-0.16,0.07c-0.08,0.02-0.17,0.03-0.25,0.02
				c-0.08-0.01-0.16-0.03-0.23-0.07c-0.07-0.04-0.13-0.09-0.19-0.16s-0.1-0.15-0.12-0.26c-0.03-0.1-0.04-0.2-0.03-0.28
				c0.01-0.09,0.03-0.17,0.07-0.24c0.04-0.07,0.09-0.13,0.16-0.18c0.07-0.05,0.14-0.08,0.22-0.11c0.05-0.01,0.09-0.02,0.12-0.02
				c0.04,0,0.07,0,0.1,0s0.06,0.01,0.09,0.02c0.03,0.01,0.06,0.02,0.09,0.04c0.02,0.01,0.04,0.02,0.07,0.03
				c0.02,0.01,0.05,0.01,0.09,0c0,0,0.01,0,0.02-0.01c0.01,0,0.01-0.01,0.02-0.01c-0.05,0.11-0.11,0.17-0.19,0.19
				c-0.02,0.01-0.05,0-0.07,0c-0.03-0.01-0.05-0.02-0.08-0.03c-0.03-0.01-0.06-0.02-0.09-0.02c-0.03-0.01-0.07,0-0.11,0.01
				c-0.09,0.02-0.16,0.08-0.2,0.18c-0.04,0.09-0.04,0.21,0,0.35c0.04,0.14,0.1,0.25,0.18,0.31c0.08,0.07,0.17,0.08,0.27,0.06
				c0.04-0.01,0.09-0.03,0.13-0.06c0.04-0.03,0.08-0.07,0.12-0.11c0.03-0.05,0.06-0.1,0.09-0.16
				C7196.82,7191.9,7196.84,7191.83,7196.84,7191.76z"/>
			<path class="st5" d="M7198.33,7191.39c0.02,0.1,0.02,0.19,0.01,0.27c-0.01,0.09-0.04,0.16-0.08,0.23
				c-0.04,0.07-0.1,0.12-0.16,0.17c-0.07,0.05-0.15,0.08-0.24,0.1c-0.09,0.02-0.18,0.02-0.27,0.01c-0.08-0.01-0.16-0.04-0.23-0.09
				c-0.07-0.04-0.12-0.1-0.17-0.17c-0.05-0.07-0.08-0.16-0.1-0.25c-0.02-0.09-0.03-0.18-0.02-0.27s0.04-0.16,0.08-0.23
				s0.1-0.13,0.17-0.18c0.07-0.05,0.16-0.09,0.26-0.11c0.1-0.02,0.19-0.02,0.27,0c0.08,0.02,0.16,0.05,0.22,0.1
				c0.06,0.05,0.12,0.11,0.16,0.18C7198.28,7191.21,7198.31,7191.29,7198.33,7191.39z M7198.01,7191.41
				c-0.01-0.06-0.03-0.12-0.06-0.17c-0.02-0.05-0.05-0.09-0.09-0.13c-0.03-0.03-0.07-0.06-0.12-0.07s-0.09-0.02-0.15,0
				c-0.06,0.01-0.1,0.03-0.14,0.07s-0.06,0.07-0.08,0.12c-0.02,0.05-0.03,0.1-0.03,0.15c0,0.06,0,0.12,0.02,0.18
				c0.02,0.07,0.03,0.12,0.06,0.18c0.03,0.05,0.06,0.1,0.09,0.13c0.03,0.04,0.07,0.06,0.12,0.08c0.04,0.01,0.1,0.02,0.15,0
				c0.06-0.01,0.1-0.03,0.14-0.06c0.04-0.03,0.06-0.07,0.08-0.12c0.02-0.05,0.03-0.1,0.03-0.16
				C7198.03,7191.54,7198.02,7191.48,7198.01,7191.41z"/>
			<path class="st5" d="M7199.74,7191.56c0.01,0.07-0.01,0.13-0.06,0.18c-0.05,0.05-0.11,0.08-0.19,0.09c-0.02,0-0.05,0-0.07-0.01
				c-0.02-0.01-0.04-0.02-0.05-0.04c0.02,0,0.04-0.01,0.06-0.03c0.02-0.02,0.03-0.05,0.02-0.09c-0.04-0.24-0.06-0.36-0.09-0.6
				c-0.02-0.1-0.04-0.17-0.07-0.23c-0.03-0.06-0.08-0.08-0.14-0.07c-0.04,0.01-0.08,0.03-0.13,0.07s-0.07,0.1-0.1,0.18
				c0.04,0.26,0.07,0.4,0.11,0.66c0.01,0.07,0.01,0.13-0.02,0.18c-0.02,0.04-0.07,0.07-0.14,0.08c-0.02,0-0.04,0-0.06-0.02
				c-0.02-0.02-0.04-0.06-0.05-0.13c-0.05-0.3-0.08-0.44-0.13-0.74c-0.02-0.09-0.04-0.16-0.07-0.21c-0.03-0.05-0.07-0.09-0.13-0.1
				c0.02-0.01,0.05-0.02,0.07-0.03c0.02-0.01,0.05-0.02,0.07-0.02c0.06-0.01,0.13-0.01,0.19,0c0.06,0.01,0.11,0.05,0.14,0.1
				c0.03-0.05,0.07-0.1,0.12-0.14c0.05-0.04,0.11-0.06,0.18-0.07c0.15-0.02,0.27,0.02,0.35,0.13c0.02-0.03,0.04-0.06,0.07-0.08
				c0.03-0.03,0.06-0.05,0.1-0.07c0.04-0.02,0.08-0.04,0.12-0.05c0.04-0.01,0.08-0.02,0.11-0.03c0.13-0.02,0.24,0.01,0.32,0.09
				c0.08,0.08,0.12,0.2,0.15,0.37c0.03,0.22,0.04,0.33,0.07,0.54c0.01,0.07-0.01,0.13-0.06,0.18c-0.05,0.05-0.11,0.07-0.19,0.08
				c-0.03,0-0.05,0-0.07-0.01c-0.02-0.01-0.04-0.02-0.05-0.04c0.02,0,0.04-0.01,0.06-0.03c0.02-0.02,0.03-0.05,0.02-0.09
				c-0.03-0.24-0.05-0.36-0.08-0.6c-0.01-0.1-0.03-0.17-0.06-0.23c-0.03-0.06-0.08-0.08-0.14-0.07c-0.04,0-0.08,0.02-0.14,0.05
				c-0.05,0.03-0.1,0.07-0.14,0.13c0.02,0.05,0.03,0.11,0.04,0.18C7199.69,7191.24,7199.7,7191.35,7199.74,7191.56z"/>
			<path class="st5" d="M7200.76,7190.74c-0.01-0.09-0.02-0.16-0.04-0.22c-0.01-0.06-0.04-0.09-0.09-0.11
				c0.03-0.01,0.05-0.02,0.08-0.03c0.02-0.01,0.05-0.01,0.07-0.01c0.08-0.01,0.14,0,0.19,0.03c0.05,0.03,0.08,0.09,0.09,0.17
				c0,0.02,0,0.03,0,0.04c0,0.01,0,0.02,0,0.04c0,0.01,0,0.03,0,0.05c0,0.02,0,0.04,0,0.08c0.02,0.25,0.04,0.37,0.06,0.62
				c0.01,0.07-0.01,0.13-0.06,0.18c-0.05,0.04-0.11,0.07-0.19,0.08c-0.03,0-0.05,0-0.07-0.01c-0.02-0.01-0.04-0.02-0.05-0.04
				c0.02,0,0.04-0.01,0.06-0.03c0.02-0.02,0.03-0.04,0.02-0.09C7200.81,7191.18,7200.79,7191.04,7200.76,7190.74z M7201.02,7189.99
				c0,0.02,0,0.05-0.01,0.07c-0.01,0.02-0.02,0.05-0.04,0.07c-0.02,0.02-0.04,0.04-0.06,0.05c-0.02,0.01-0.05,0.02-0.07,0.02
				c-0.05,0.01-0.1,0-0.15-0.02c-0.05-0.02-0.07-0.06-0.08-0.11c0-0.02,0-0.05,0.01-0.08s0.02-0.05,0.03-0.07
				c0.02-0.02,0.04-0.04,0.06-0.06c0.02-0.01,0.05-0.02,0.09-0.03c0.05-0.01,0.1,0.01,0.15,0.03
				C7200.99,7189.9,7201.02,7189.94,7201.02,7189.99z"/>
			<path class="st5" d="M7202.62,7191.28c0,0.08-0.02,0.13-0.07,0.18c-0.05,0.04-0.12,0.07-0.2,0.07c-0.02,0-0.05,0-0.07-0.02
				c-0.02-0.01-0.04-0.03-0.05-0.04c0.02,0,0.04-0.01,0.07-0.02c0.02-0.01,0.03-0.04,0.03-0.09c-0.01-0.22-0.02-0.33-0.03-0.55
				c0-0.05-0.01-0.1-0.01-0.14c0-0.05-0.01-0.09-0.03-0.12c-0.02-0.03-0.04-0.06-0.07-0.08s-0.07-0.03-0.13-0.02
				c-0.02,0-0.04,0.01-0.07,0.02c-0.03,0.01-0.05,0.02-0.08,0.04c-0.02,0.02-0.05,0.04-0.07,0.07c-0.02,0.03-0.04,0.06-0.06,0.1
				c0.02,0.27,0.03,0.4,0.05,0.67c0.01,0.08-0.01,0.13-0.03,0.17s-0.08,0.06-0.15,0.07c-0.02,0-0.04-0.01-0.06-0.03
				c-0.02-0.02-0.03-0.07-0.04-0.14c-0.03-0.3-0.04-0.45-0.06-0.75c-0.01-0.09-0.02-0.16-0.05-0.22s-0.07-0.09-0.12-0.11
				c0.03-0.01,0.05-0.02,0.08-0.03c0.03-0.01,0.05-0.01,0.07-0.01c0.07-0.01,0.13,0,0.19,0.02c0.06,0.02,0.1,0.06,0.13,0.11
				c0.04-0.05,0.09-0.09,0.15-0.13c0.06-0.04,0.13-0.05,0.19-0.06c0.16-0.01,0.28,0.03,0.36,0.12c0.08,0.09,0.12,0.23,0.13,0.43
				C7202.6,7190.98,7202.61,7191.08,7202.62,7191.28z"/>
			<path class="st5" d="M7203.12,7189.86c-0.02-0.06-0.06-0.1-0.12-0.12c0.03-0.01,0.05-0.02,0.08-0.02
				c0.03-0.01,0.05-0.01,0.07-0.01c0.04,0,0.08,0,0.12,0.01c0.04,0.01,0.07,0.02,0.1,0.03c0.03,0.02,0.06,0.04,0.07,0.07
				c0.02,0.03,0.03,0.07,0.03,0.11c0,0.02,0,0.03,0,0.04s0,0.02-0.01,0.04c0,0.01,0,0.03-0.01,0.05c0,0.02,0,0.04,0,0.08
				c0,0.04,0,0.07,0,0.11c0.05-0.01,0.09-0.02,0.14-0.03c0.04-0.01,0.09-0.01,0.14-0.01c0.03,0,0.05,0,0.08,0
				c0.02,0,0.05,0.01,0.07,0.02c0.02,0.01,0.03,0.02,0.05,0.03c0.01,0.01,0.02,0.03,0.02,0.06c0,0.04-0.01,0.06-0.03,0.08
				c-0.02,0.02-0.05,0.03-0.08,0.04c-0.04,0.02-0.08,0.04-0.12,0.07c-0.04,0.02-0.08,0.05-0.11,0.06c0.01-0.01,0.02-0.03,0.04-0.05
				c0.02-0.02,0.04-0.04,0.07-0.07c-0.01,0-0.02,0-0.03,0c-0.01,0-0.02,0-0.03,0c-0.03,0-0.06,0.01-0.09,0.01
				c-0.03,0-0.06,0.01-0.1,0.01c0.01,0.26,0.01,0.39,0.02,0.65c0,0.06,0.01,0.11,0.02,0.14c0.01,0.04,0.03,0.06,0.05,0.08
				c0.02,0.02,0.04,0.03,0.07,0.03c0.03,0,0.05,0.01,0.08,0.01c0.03,0,0.07-0.01,0.1-0.02c0.03-0.01,0.06-0.03,0.1-0.06
				c-0.01,0.03-0.03,0.06-0.05,0.08c-0.02,0.02-0.05,0.04-0.08,0.05c-0.03,0.01-0.06,0.02-0.09,0.03c-0.03,0.01-0.06,0.01-0.1,0.01
				c-0.05,0-0.1,0-0.14-0.01c-0.04-0.01-0.09-0.03-0.12-0.06c-0.04-0.03-0.06-0.07-0.09-0.11c-0.02-0.05-0.04-0.11-0.04-0.19
				c-0.01-0.24-0.01-0.36-0.02-0.6c-0.05,0.01-0.1,0.01-0.14,0.01c-0.05,0-0.1-0.01-0.14-0.04c-0.04-0.03-0.07-0.08-0.08-0.15
				c0.05,0.01,0.11,0.01,0.17,0c0.06-0.01,0.13-0.02,0.19-0.03c0-0.09,0-0.14-0.01-0.24
				C7203.16,7189.99,7203.15,7189.91,7203.12,7189.86z"/>
			<path class="st5" d="M7205.1,7191.15c0,0.06-0.02,0.12-0.05,0.16c-0.04,0.04-0.08,0.08-0.13,0.11c-0.05,0.03-0.11,0.05-0.17,0.06
				c-0.06,0.01-0.12,0.02-0.18,0.02c-0.06,0-0.12-0.01-0.18-0.03c-0.05-0.02-0.1-0.04-0.14-0.07c-0.04-0.03-0.07-0.06-0.09-0.1
				c-0.02-0.04-0.03-0.08-0.03-0.13c0-0.01,0-0.03,0-0.06c0-0.03,0.01-0.07,0.02-0.11c0.02,0.05,0.04,0.1,0.07,0.13
				c0.03,0.04,0.06,0.07,0.1,0.1c0.04,0.03,0.07,0.05,0.11,0.06c0.04,0.01,0.08,0.02,0.11,0.02c0.07,0,0.13-0.01,0.18-0.03
				c0.05-0.02,0.08-0.06,0.08-0.12c0-0.08-0.05-0.15-0.14-0.21c-0.06-0.04-0.12-0.07-0.18-0.1c-0.06-0.03-0.11-0.06-0.15-0.09
				c-0.04-0.03-0.08-0.07-0.11-0.11s-0.05-0.08-0.05-0.13c0-0.05,0-0.09,0.02-0.14c0.02-0.04,0.05-0.08,0.08-0.11
				c0.04-0.03,0.09-0.06,0.14-0.07c0.06-0.02,0.12-0.03,0.2-0.02c0.03,0,0.06,0,0.1,0.01c0.04,0.01,0.09,0.02,0.14,0.03
				c0.02,0.01,0.04,0.01,0.06,0.02c0.02,0.01,0.04,0.01,0.06,0.02c0.02,0,0.04,0,0.07,0c0.02,0,0.05-0.01,0.07-0.03
				c-0.03,0.07-0.06,0.13-0.1,0.17c-0.03,0.05-0.07,0.07-0.12,0.07c-0.03,0-0.05-0.01-0.07-0.02c-0.02-0.01-0.04-0.02-0.06-0.04
				c-0.02-0.01-0.04-0.02-0.07-0.04c-0.03-0.01-0.06-0.02-0.1-0.02c-0.05,0-0.09,0.01-0.12,0.04c-0.03,0.02-0.04,0.05-0.04,0.09
				c0,0.03,0.01,0.06,0.03,0.09c0.02,0.03,0.04,0.05,0.07,0.07c0.03,0.02,0.06,0.04,0.09,0.05c0.03,0.02,0.06,0.03,0.09,0.05
				c0.04,0.02,0.08,0.05,0.13,0.07c0.04,0.02,0.09,0.05,0.12,0.08c0.04,0.03,0.07,0.07,0.09,0.11
				C7205.09,7191.03,7205.1,7191.08,7205.1,7191.15z"/>
		</g>
	</g>
</g>
</svg>
