<svg id="Lager_1" data-name="Lager 1" xmlns="http://www.w3.org/2000/svg" xmlns:xlink="http://www.w3.org/1999/xlink" viewBox="0 0 110.07 75.13"><defs><style>.cls-1{fill:#b79e4e;}.cls-1,.cls-3{stroke:#000;stroke-width:0.5px;}.cls-1,.cls-3,.cls-5{stroke-miterlimit:10;}.cls-2{fill:url(#Namnlös_övertoning_235);}.cls-3{fill:#eace59;}.cls-4{fill:#ba990f;}.cls-5{fill:none;stroke:#cccc09;}.cls-6{fill:#cccc09;}</style><linearGradient id="Namnlös_övertoning_235" x1="7224.66" y1="7198.5" x2="7271.86" y2="7215.68" gradientUnits="userSpaceOnUse"><stop offset="0" stop-color="#fff"/><stop offset="0.01" stop-color="#fffbfb"/><stop offset="0.01" stop-color="#feeeef"/><stop offset="0.02" stop-color="#fcd9da"/><stop offset="0.03" stop-color="#fabbbe"/><stop offset="0.03" stop-color="#f79599"/><stop offset="0.04" stop-color="#f3676c"/><stop offset="0.05" stop-color="#ef3038"/><stop offset="0.05" stop-color="#ed1c24"/><stop offset="0.06" stop-color="#f14b51"/><stop offset="0.06" stop-color="#f58186"/><stop offset="0.07" stop-color="#f9aeb1"/><stop offset="0.08" stop-color="#fbd1d3"/><stop offset="0.09" stop-color="#fdebeb"/><stop offset="0.09" stop-color="snow"/><stop offset="0.1" stop-color="#fff"/><stop offset="0.1" stop-color="#fef0f0"/><stop offset="0.13" stop-color="#f57f83"/><stop offset="0.14" stop-color="#ef383f"/><stop offset="0.15" stop-color="#ed1c24"/><stop offset="0.16" stop-color="#f14b51"/><stop offset="0.16" stop-color="#f58186"/><stop offset="0.17" stop-color="#f9aeb1"/><stop offset="0.18" stop-color="#fbd1d3"/><stop offset="0.19" stop-color="#fdebeb"/><stop offset="0.19" stop-color="snow"/><stop offset="0.2" stop-color="#fff"/><stop offset="0.2" stop-color="#fef0f0"/><stop offset="0.23" stop-color="#f57f83"/><stop offset="0.24" stop-color="#ef383f"/><stop offset="0.25" stop-color="#ed1c24"/><stop offset="0.26" stop-color="#f14b51"/><stop offset="0.26" stop-color="#f58186"/><stop offset="0.27" stop-color="#f9aeb1"/><stop offset="0.28" stop-color="#fbd1d3"/><stop offset="0.29" stop-color="#fdebeb"/><stop offset="0.29" stop-color="snow"/><stop offset="0.3" stop-color="#fff"/><stop offset="0.3" stop-color="#fef0f0"/><stop offset="0.33" stop-color="#f57f83"/><stop offset="0.34" stop-color="#ef383f"/><stop offset="0.35" stop-color="#ed1c24"/><stop offset="0.36" stop-color="#f14b51"/><stop offset="0.36" stop-color="#f58186"/><stop offset="0.37" stop-color="#f9aeb1"/><stop offset="0.38" stop-color="#fbd1d3"/><stop offset="0.39" stop-color="#fdebeb"/><stop offset="0.39" stop-color="snow"/><stop offset="0.4" stop-color="#fff"/><stop offset="0.4" stop-color="#fef0f0"/><stop offset="0.43" stop-color="#f57f83"/><stop offset="0.44" stop-color="#ef383f"/><stop offset="0.45" stop-color="#ed1c24"/><stop offset="0.46" stop-color="#f14b51"/><stop offset="0.46" stop-color="#f58186"/><stop offset="0.47" stop-color="#f9aeb1"/><stop offset="0.48" stop-color="#fbd1d3"/><stop offset="0.49" stop-color="#fdebeb"/><stop offset="0.49" stop-color="snow"/><stop offset="0.5" stop-color="#fff"/><stop offset="0.5" stop-color="#fef0f0"/><stop offset="0.53" stop-color="#f57f83"/><stop offset="0.54" stop-color="#ef383f"/><stop offset="0.55" stop-color="#ed1c24"/><stop offset="0.56" stop-color="#f14b51"/><stop offset="0.56" stop-color="#f58186"/><stop offset="0.57" stop-color="#f9aeb1"/><stop offset="0.58" stop-color="#fbd1d3"/><stop offset="0.59" stop-color="#fdebeb"/><stop offset="0.59" stop-color="snow"/><stop offset="0.6" stop-color="#fff"/><stop offset="0.6" stop-color="#fef0f0"/><stop offset="0.63" stop-color="#f57f83"/><stop offset="0.64" stop-color="#ef383f"/><stop offset="0.65" stop-color="#ed1c24"/><stop offset="0.66" stop-color="#f14b51"/><stop offset="0.66" stop-color="#f58186"/><stop offset="0.67" stop-color="#f9aeb1"/><stop offset="0.68" stop-color="#fbd1d3"/><stop offset="0.69" stop-color="#fdebeb"/><stop offset="0.69" stop-color="snow"/><stop offset="0.7" stop-color="#fff"/><stop offset="0.7" stop-color="#fef0f0"/><stop offset="0.73" stop-color="#f57f83"/><stop offset="0.74" stop-color="#ef383f"/><stop offset="0.75" stop-color="#ed1c24"/><stop offset="0.76" stop-color="#f14b51"/><stop offset="0.76" stop-color="#f58186"/><stop offset="0.77" stop-color="#f9aeb1"/><stop offset="0.78" stop-color="#fbd1d3"/><stop offset="0.79" stop-color="#fdebeb"/><stop offset="0.79" stop-color="snow"/><stop offset="0.8" stop-color="#fff"/><stop offset="0.8" stop-color="#fef0f0"/><stop offset="0.83" stop-color="#f57f83"/><stop offset="0.84" stop-color="#ef383f"/><stop offset="0.85" stop-color="#ed1c24"/><stop offset="0.86" stop-color="#f14b51"/><stop offset="0.86" stop-color="#f58186"/><stop offset="0.87" stop-color="#f9aeb1"/><stop offset="0.88" stop-color="#fbd1d3"/><stop offset="0.89" stop-color="#fdebeb"/><stop offset="0.89" stop-color="snow"/><stop offset="0.9" stop-color="#fff"/><stop offset="0.9" stop-color="#fef0f0"/><stop offset="0.93" stop-color="#f57f83"/><stop offset="0.94" stop-color="#ef383f"/><stop offset="0.95" stop-color="#ed1c24"/><stop offset="0.96" stop-color="#f14b51"/><stop offset="0.96" stop-color="#f58186"/><stop offset="0.97" stop-color="#f9aeb1"/><stop offset="0.98" stop-color="#fbd1d3"/><stop offset="0.99" stop-color="#fdebeb"/><stop offset="0.99" stop-color="snow"/><stop offset="1" stop-color="#fff"/></linearGradient></defs><path id="Taco_Back" data-name="Taco Back" class="cls-1" d="M7256.71,7227.32c4.51-1,14.29-5.34,14.29-5.34,3.81-1.22,5.12-3.84,4.47-7.19-2.11-10.78-22-26.36-53.11-14.87" transform="translate(-7173.83 -7176.24)"/><path id="Polka_Salad" data-name="Polka Salad" class="cls-2" d="M7260.68,7221.92a5.15,5.15,0,0,0,6.21,1.6c4.11-1.54,4.14-5.21,1.38-6.74.61-3.07,2-7.51-2.84-9.34-2.52-4-2.06-7.2-10-6.89-2.78-3.74-6.43-5.21-9.49-2.91-3.37-2.6-4.75-3.36-7.81-1.76-4-2.07-8.11-.81-8.42,1.77-4.44,0-5.09.12-5.15,1.51" transform="translate(-7173.83 -7176.24)"/><path id="Taco_Front" data-name="Taco Front" class="cls-3" d="M7196,7241.46c4.2.58,19-2.94,31.23-5.24,24.49-7.35,30.4-5.95,33.44-14.3,3.77-10.38-12.52-24.94-38.32-22-20.23,2.31-27.58,8.13-32.64,18.39C7186.48,7224.68,7182,7239.52,7196,7241.46Z" transform="translate(-7173.83 -7176.24)"/><g id="Dots"><circle class="cls-4" cx="32.58" cy="37.36" r="0.96"/><circle class="cls-4" cx="45.21" cy="38.31" r="0.96"/><circle class="cls-4" cx="76.12" cy="46.2" r="0.96"/><circle class="cls-4" cx="39.59" cy="29.59" r="0.96"/><circle class="cls-4" cx="58.5" cy="51.07" r="0.96"/><circle class="cls-4" cx="73.53" cy="37.36" r="0.96"/><circle class="cls-4" cx="23.74" cy="54.35" r="0.96"/><circle class="cls-4" cx="37.56" cy="45.24" r="0.96"/><circle class="cls-4" cx="23.74" cy="43.33" r="0.96"/><circle class="cls-4" cx="48.44" cy="31.5" r="0.96"/><circle class="cls-4" cx="60.41" cy="30.54" r="0.96"/><circle class="cls-4" cx="65.96" cy="44.29" r="0.96"/><circle class="cls-4" cx="49.4" cy="47.7" r="0.96"/><circle class="cls-4" cx="35.64" cy="53.39" r="0.96"/><circle class="cls-4" cx="61.37" cy="37.36" r="0.96"/></g><path class="cls-5" d="M7196.61,7192.4c-15.7,9.57-24.69,23.26-21.71,35.86,4.3,18.21,32,27.26,61.75,20.22s50.48-27.51,46.18-45.72c-2.36-10-14.67-17.25-27.63-20.57" transform="translate(-7173.83 -7176.24)"/><path class="cls-6" d="M7202.33,7184.64c-.29.07-.59.16-.88.26l-.87.34c0,.11,0,.23.07.36a2.4,2.4,0,0,0,.15.5l1.75,4.82a.91.91,0,0,1-.05.81,1.48,1.48,0,0,1-.71.54.7.7,0,0,1-.32,0,.49.49,0,0,1-.26-.12.55.55,0,0,0,.24-.18.42.42,0,0,0,0-.41c-.79-2.11-1.18-3.17-2-5.29l-.08-.21-.09-.2-.52.32c-.17.11-.34.22-.5.34a2.67,2.67,0,0,1-.32.26,2,2,0,0,1-.38.2.85.85,0,0,1-.44.05.91.91,0,0,1-.38-.16,1.56,1.56,0,0,1-.32-.31,1.88,1.88,0,0,1-.23-.42,1.21,1.21,0,0,0,.66.05,3.3,3.3,0,0,0,.76-.2,7.52,7.52,0,0,0,.8-.35l.8-.41,1.1-.6c.36-.21.71-.42,1.06-.65l.31-.19a2,2,0,0,1,.47-.22,1.16,1.16,0,0,1,.52-.05.37.37,0,0,1,.32.29.47.47,0,0,1,0,.31.61.61,0,0,1-.15.24,1,1,0,0,1-.25.17A1.08,1.08,0,0,1,7202.33,7184.64Z" transform="translate(-7173.83 -7176.24)"/><path class="cls-6" d="M7211.1,7187.67a2,2,0,0,1,.15.69,1.33,1.33,0,0,1-.11.52.86.86,0,0,1-.29.36,1.06,1.06,0,0,1-.39.21,2,2,0,0,1-.57.09,1.32,1.32,0,0,1-.61-.17,1.79,1.79,0,0,1-.57.53,4.17,4.17,0,0,1-.79.33,2.37,2.37,0,0,1-.73.12,1.93,1.93,0,0,1-.65-.11,1.36,1.36,0,0,1-.52-.33,1.33,1.33,0,0,1-.33-.55c-.47-1.4.37-2.49,2.53-3.2l0-.13a1.24,1.24,0,0,0-.39-.61.57.57,0,0,0-.57-.11,1.15,1.15,0,0,0-.68.47,1.48,1.48,0,0,1-.73.62,1.24,1.24,0,0,1-1.06-.19,1.15,1.15,0,0,0,.44-.28,1.44,1.44,0,0,0,.25-.4,1.59,1.59,0,0,1,.55-.64,2.91,2.91,0,0,1,.9-.44,2.86,2.86,0,0,1,1-.15,1.76,1.76,0,0,1,.77.26,2,2,0,0,1,.55.62,5,5,0,0,1,.38.93c.08.28.15.57.22.87s.14.61.24.94a1.23,1.23,0,0,0,.19.44c.07.08.13.13.2.13a.5.5,0,0,0,.39-.18A1.29,1.29,0,0,0,7211.1,7187.67Zm-2.65-.78a5.37,5.37,0,0,0-.69.31,2.34,2.34,0,0,0-.58.42,1.47,1.47,0,0,0-.33.55,1.17,1.17,0,0,0,0,.71.8.8,0,0,0,.38.49.87.87,0,0,0,.66,0,2.38,2.38,0,0,0,.56-.3,1.5,1.5,0,0,0,.45-.61Z" transform="translate(-7173.83 -7176.24)"/><path class="cls-6" d="M7216.16,7185.16a3.4,3.4,0,0,1,.16.34c0,.1.07.21.1.31a1.79,1.79,0,0,1,0,.92,1.76,1.76,0,0,1-.37.72,2.19,2.19,0,0,1-.61.52,3.22,3.22,0,0,1-.71.29,2.83,2.83,0,0,1-1.08.08,2.56,2.56,0,0,1-1-.31,2.6,2.6,0,0,1-.81-.71,3.48,3.48,0,0,1-.67-2.35,2.65,2.65,0,0,1,.32-1,2.46,2.46,0,0,1,.69-.78,2.8,2.8,0,0,1,1-.46,4.25,4.25,0,0,1,.52-.1,2.19,2.19,0,0,1,.44,0,1.61,1.61,0,0,1,.38.08l.4.15.29.14a.57.57,0,0,0,.39,0l.08,0,.09,0a1.32,1.32,0,0,1-.81.83.58.58,0,0,1-.32,0l-.34-.12-.41-.1a1,1,0,0,0-.46,0,1.22,1.22,0,0,0-.86.78,2.4,2.4,0,0,0,0,1.55,2.47,2.47,0,0,0,.79,1.35,1.27,1.27,0,0,0,1.17.27,2.06,2.06,0,0,0,.58-.28,2.36,2.36,0,0,0,.51-.49,2.83,2.83,0,0,0,.37-.69A2.92,2.92,0,0,0,7216.16,7185.16Z" transform="translate(-7173.83 -7176.24)"/><path class="cls-6" d="M7222.62,7183.54a3.38,3.38,0,0,1,0,1.18,2.49,2.49,0,0,1-.35,1,2.35,2.35,0,0,1-.7.74,3.08,3.08,0,0,1-1.06.44,3,3,0,0,1-1.16,0,2.5,2.5,0,0,1-1-.38,2.59,2.59,0,0,1-.75-.76,3.34,3.34,0,0,1-.45-1.09,3.3,3.3,0,0,1-.08-1.16,2.63,2.63,0,0,1,.34-1,2.42,2.42,0,0,1,.74-.79,3,3,0,0,1,1.13-.47,2.82,2.82,0,0,1,1.19,0,2.35,2.35,0,0,1,1,.42,2.46,2.46,0,0,1,.71.79A3.37,3.37,0,0,1,7222.62,7183.54Zm-1.37.12a3.58,3.58,0,0,0-.24-.76,2.18,2.18,0,0,0-.38-.57,1.19,1.19,0,0,0-.51-.32,1.22,1.22,0,0,0-.66,0,1.28,1.28,0,0,0-1,.8,2.05,2.05,0,0,0-.14.68,3.66,3.66,0,0,0,.09.78,3.48,3.48,0,0,0,.26.77,2.26,2.26,0,0,0,.39.58,1.23,1.23,0,0,0,.52.32,1.37,1.37,0,0,0,1.24-.26,1.29,1.29,0,0,0,.35-.5,2.12,2.12,0,0,0,.13-.69A3.9,3.9,0,0,0,7221.25,7183.66Z" transform="translate(-7173.83 -7176.24)"/><path class="cls-6" d="M7228.75,7184.32a.83.83,0,0,1-.24.78,1.44,1.44,0,0,1-.84.39.56.56,0,0,1-.31,0,.51.51,0,0,1-.23-.17.55.55,0,0,0,.28-.13.41.41,0,0,0,.08-.39l-.41-2.6a3.36,3.36,0,0,0-.28-1,.54.54,0,0,0-.63-.3,1.16,1.16,0,0,0-.56.29,1.69,1.69,0,0,0-.42.78l.49,2.87a1.18,1.18,0,0,1-.07.77.77.77,0,0,1-.6.36.32.32,0,0,1-.28-.09,1,1,0,0,1-.23-.58l-.58-3.23a3,3,0,0,0-.3-.92.8.8,0,0,0-.58-.43,2.3,2.3,0,0,1,.32-.15,2.26,2.26,0,0,1,.3-.08,2,2,0,0,1,.81,0,.84.84,0,0,1,.6.43,1.72,1.72,0,0,1,.52-.59,1.69,1.69,0,0,1,.77-.32,1.48,1.48,0,0,1,1.54.56,1.44,1.44,0,0,1,.3-.37,3.58,3.58,0,0,1,.45-.31,2.55,2.55,0,0,1,.5-.24,2.4,2.4,0,0,1,.48-.12,1.5,1.5,0,0,1,1.37.4,2.79,2.79,0,0,1,.63,1.63l.29,2.36a.87.87,0,0,1-.26.78,1.54,1.54,0,0,1-.85.37.55.55,0,0,1-.31-.05.51.51,0,0,1-.23-.17.6.6,0,0,0,.28-.13q.14-.1.09-.39l-.34-2.6a3.85,3.85,0,0,0-.26-1,.55.55,0,0,0-.63-.32,1.89,1.89,0,0,0-1.19.8,4,4,0,0,1,.19.79Z" transform="translate(-7173.83 -7176.24)"/><path class="cls-6" d="M7233.21,7180.73a7.43,7.43,0,0,0-.16-.95.6.6,0,0,0-.38-.48,2.26,2.26,0,0,1,.33-.13l.3-.06a1.37,1.37,0,0,1,.83.13.86.86,0,0,1,.38.75.6.6,0,0,1,0,.19,1,1,0,0,1,0,.15c0,.06,0,.12,0,.2a2.73,2.73,0,0,0,0,.35l.27,2.69a.91.91,0,0,1-.25.78,1.37,1.37,0,0,1-.82.34.67.67,0,0,1-.31,0,.58.58,0,0,1-.22-.18.7.7,0,0,0,.28-.12c.09-.07.12-.2.1-.39Zm1.14-3.26a.7.7,0,0,1-.05.32.88.88,0,0,1-.18.29,1.39,1.39,0,0,1-.27.21,1.07,1.07,0,0,1-.33.11,1.26,1.26,0,0,1-.64-.1.55.55,0,0,1-.34-.46.93.93,0,0,1,0-.33,1.15,1.15,0,0,1,.14-.32,1,1,0,0,1,.26-.24.9.9,0,0,1,.38-.13,1.11,1.11,0,0,1,.66.15A.63.63,0,0,1,7234.35,7177.47Z" transform="translate(-7173.83 -7176.24)"/><path class="cls-6" d="M7241.3,7183.08a.85.85,0,0,1-.32.76,1.56,1.56,0,0,1-.86.31.64.64,0,0,1-.31-.07.6.6,0,0,1-.22-.19.61.61,0,0,0,.29-.11c.09-.06.13-.19.12-.38l-.15-2.39c0-.21,0-.42-.05-.62a1.65,1.65,0,0,0-.13-.53.69.69,0,0,0-.3-.35.86.86,0,0,0-.56-.1.92.92,0,0,0-.3.07,1.35,1.35,0,0,0-.33.18,1.74,1.74,0,0,0-.31.3,1.87,1.87,0,0,0-.25.44l.22,2.9a1.17,1.17,0,0,1-.14.76.8.8,0,0,1-.63.31.38.38,0,0,1-.28-.13,1,1,0,0,1-.17-.59l-.29-3.27a2.91,2.91,0,0,0-.21-.95.77.77,0,0,0-.53-.48,2.19,2.19,0,0,1,.33-.12l.3-.05a2.25,2.25,0,0,1,.82.08.88.88,0,0,1,.55.5,2,2,0,0,1,.65-.55,1.91,1.91,0,0,1,.84-.26,1.76,1.76,0,0,1,1.56.52,3.09,3.09,0,0,1,.55,1.86Z" transform="translate(-7173.83 -7176.24)"/><path class="cls-6" d="M7243.49,7176.89a.85.85,0,0,0-.52-.51l.34-.1.31,0a2.12,2.12,0,0,1,.51,0,1.09,1.09,0,0,1,.45.15.91.91,0,0,1,.32.3.85.85,0,0,1,.13.48.5.5,0,0,1,0,.18l0,.16c0,.05,0,.12,0,.2a1.9,1.9,0,0,0,0,.34v.48l.6-.11a4,4,0,0,1,.59-.05h.34a.77.77,0,0,1,.28.07.43.43,0,0,1,.2.14.46.46,0,0,1,.08.25.4.4,0,0,1-.14.34.78.78,0,0,1-.33.16l-.53.29-.47.28.19-.21.29-.3-.14,0h-.13l-.38.05-.43.06.07,2.85a1.71,1.71,0,0,0,.09.61.74.74,0,0,0,.21.35.69.69,0,0,0,.3.14,2.19,2.19,0,0,0,.36,0,1.62,1.62,0,0,0,.44-.07.89.89,0,0,0,.42-.27.79.79,0,0,1-.23.34,1.18,1.18,0,0,1-.35.23,1.4,1.4,0,0,1-.41.13,2,2,0,0,1-.41,0,2,2,0,0,1-.61-.06,1.24,1.24,0,0,1-.53-.25,1.12,1.12,0,0,1-.38-.49,2,2,0,0,1-.16-.8l-.09-2.59a5.27,5.27,0,0,1-.63,0,1.09,1.09,0,0,1-.61-.15,1,1,0,0,1-.36-.67,2.26,2.26,0,0,0,.74,0,6.63,6.63,0,0,0,.83-.15l0-1A3.09,3.09,0,0,0,7243.49,7176.89Z" transform="translate(-7173.83 -7176.24)"/><path class="cls-6" d="M7252.08,7182.51a1.15,1.15,0,0,1-.24.69,1.73,1.73,0,0,1-.57.46,2.66,2.66,0,0,1-.75.26,3.57,3.57,0,0,1-.79.07,2.7,2.7,0,0,1-.77-.11,2.15,2.15,0,0,1-.61-.29,1.46,1.46,0,0,1-.42-.44,1.1,1.1,0,0,1-.15-.57s0-.13,0-.28a1.94,1.94,0,0,1,.1-.49,1.86,1.86,0,0,0,.32.59,2.78,2.78,0,0,0,.42.42,1.57,1.57,0,0,0,.48.25,1.37,1.37,0,0,0,.48.1,1.87,1.87,0,0,0,.78-.15.53.53,0,0,0,.34-.53,1,1,0,0,0-.61-.91l-.79-.44a5.16,5.16,0,0,1-.67-.41,1.92,1.92,0,0,1-.48-.46,1.18,1.18,0,0,1-.23-.59,1.26,1.26,0,0,1,.08-.58,1.22,1.22,0,0,1,.37-.48,1.73,1.73,0,0,1,.62-.32,3.23,3.23,0,0,1,.87-.11l.45.06.61.15a1.07,1.07,0,0,1,.27.09l.27.07a.93.93,0,0,0,.29,0,.85.85,0,0,0,.32-.12,3.71,3.71,0,0,1-.42.75.64.64,0,0,1-.51.3.66.66,0,0,1-.29-.08l-.25-.16-.29-.15a1,1,0,0,0-.42-.08.73.73,0,0,0-.5.15.54.54,0,0,0-.17.39.65.65,0,0,0,.12.39,1.54,1.54,0,0,0,.32.3,1.74,1.74,0,0,0,.4.23l.38.2c.18.11.37.21.56.31a3,3,0,0,1,.54.35,1.61,1.61,0,0,1,.39.47A1.31,1.31,0,0,1,7252.08,7182.51Z" transform="translate(-7173.83 -7176.24)"/></svg>