<svg id="Lager_1" data-name="Lager 1" xmlns="http://www.w3.org/2000/svg" xmlns:xlink="http://www.w3.org/1999/xlink" viewBox="0 0 26.07 17.65"><defs><style>.cls-1{fill:#b79e4e;}.cls-1,.cls-3{stroke:#000;stroke-width:0.5px;}.cls-1,.cls-3,.cls-5{stroke-miterlimit:10;}.cls-2{fill:url(#Namnlös_övertoning_235);}.cls-3{fill:#eace59;}.cls-4{fill:#ba990f;}.cls-5{fill:none;stroke:#cccc09;}.cls-6{fill:#cccc09;}</style><linearGradient id="Namnlös_övertoning_235" x1="7198.79" y1="7194.83" x2="7209.64" y2="7198.77" gradientUnits="userSpaceOnUse"><stop offset="0" stop-color="#fff"/><stop offset="0.01" stop-color="#fffbfb"/><stop offset="0.01" stop-color="#feeeef"/><stop offset="0.02" stop-color="#fcd9da"/><stop offset="0.03" stop-color="#fabbbe"/><stop offset="0.03" stop-color="#f79599"/><stop offset="0.04" stop-color="#f3676c"/><stop offset="0.05" stop-color="#ef3038"/><stop offset="0.05" stop-color="#ed1c24"/><stop offset="0.06" stop-color="#f14b51"/><stop offset="0.06" stop-color="#f58186"/><stop offset="0.07" stop-color="#f9aeb1"/><stop offset="0.08" stop-color="#fbd1d3"/><stop offset="0.09" stop-color="#fdebeb"/><stop offset="0.09" stop-color="snow"/><stop offset="0.1" stop-color="#fff"/><stop offset="0.1" stop-color="#fef0f0"/><stop offset="0.13" stop-color="#f57f83"/><stop offset="0.14" stop-color="#ef383f"/><stop offset="0.15" stop-color="#ed1c24"/><stop offset="0.16" stop-color="#f14b51"/><stop offset="0.16" stop-color="#f58186"/><stop offset="0.17" stop-color="#f9aeb1"/><stop offset="0.18" stop-color="#fbd1d3"/><stop offset="0.19" stop-color="#fdebeb"/><stop offset="0.19" stop-color="snow"/><stop offset="0.2" stop-color="#fff"/><stop offset="0.2" stop-color="#fef0f0"/><stop offset="0.23" stop-color="#f57f83"/><stop offset="0.24" stop-color="#ef383f"/><stop offset="0.25" stop-color="#ed1c24"/><stop offset="0.26" stop-color="#f14b51"/><stop offset="0.26" stop-color="#f58186"/><stop offset="0.27" stop-color="#f9aeb1"/><stop offset="0.28" stop-color="#fbd1d3"/><stop offset="0.29" stop-color="#fdebeb"/><stop offset="0.29" stop-color="snow"/><stop offset="0.3" stop-color="#fff"/><stop offset="0.3" stop-color="#fef0f0"/><stop offset="0.33" stop-color="#f57f83"/><stop offset="0.34" stop-color="#ef383f"/><stop offset="0.35" stop-color="#ed1c24"/><stop offset="0.36" stop-color="#f14b51"/><stop offset="0.36" stop-color="#f58186"/><stop offset="0.37" stop-color="#f9aeb1"/><stop offset="0.38" stop-color="#fbd1d3"/><stop offset="0.39" stop-color="#fdebeb"/><stop offset="0.39" stop-color="snow"/><stop offset="0.4" stop-color="#fff"/><stop offset="0.4" stop-color="#fef0f0"/><stop offset="0.43" stop-color="#f57f83"/><stop offset="0.44" stop-color="#ef383f"/><stop offset="0.45" stop-color="#ed1c24"/><stop offset="0.46" stop-color="#f14b51"/><stop offset="0.46" stop-color="#f58186"/><stop offset="0.47" stop-color="#f9aeb1"/><stop offset="0.48" stop-color="#fbd1d3"/><stop offset="0.49" stop-color="#fdebeb"/><stop offset="0.49" stop-color="snow"/><stop offset="0.5" stop-color="#fff"/><stop offset="0.5" stop-color="#fef0f0"/><stop offset="0.53" stop-color="#f57f83"/><stop offset="0.54" stop-color="#ef383f"/><stop offset="0.55" stop-color="#ed1c24"/><stop offset="0.56" stop-color="#f14b51"/><stop offset="0.56" stop-color="#f58186"/><stop offset="0.57" stop-color="#f9aeb1"/><stop offset="0.58" stop-color="#fbd1d3"/><stop offset="0.59" stop-color="#fdebeb"/><stop offset="0.59" stop-color="snow"/><stop offset="0.6" stop-color="#fff"/><stop offset="0.6" stop-color="#fef0f0"/><stop offset="0.63" stop-color="#f57f83"/><stop offset="0.64" stop-color="#ef383f"/><stop offset="0.65" stop-color="#ed1c24"/><stop offset="0.66" stop-color="#f14b51"/><stop offset="0.66" stop-color="#f58186"/><stop offset="0.67" stop-color="#f9aeb1"/><stop offset="0.68" stop-color="#fbd1d3"/><stop offset="0.69" stop-color="#fdebeb"/><stop offset="0.69" stop-color="snow"/><stop offset="0.7" stop-color="#fff"/><stop offset="0.7" stop-color="#fef0f0"/><stop offset="0.73" stop-color="#f57f83"/><stop offset="0.74" stop-color="#ef383f"/><stop offset="0.75" stop-color="#ed1c24"/><stop offset="0.76" stop-color="#f14b51"/><stop offset="0.76" stop-color="#f58186"/><stop offset="0.77" stop-color="#f9aeb1"/><stop offset="0.78" stop-color="#fbd1d3"/><stop offset="0.79" stop-color="#fdebeb"/><stop offset="0.79" stop-color="snow"/><stop offset="0.8" stop-color="#fff"/><stop offset="0.8" stop-color="#fef0f0"/><stop offset="0.83" stop-color="#f57f83"/><stop offset="0.84" stop-color="#ef383f"/><stop offset="0.85" stop-color="#ed1c24"/><stop offset="0.86" stop-color="#f14b51"/><stop offset="0.86" stop-color="#f58186"/><stop offset="0.87" stop-color="#f9aeb1"/><stop offset="0.88" stop-color="#fbd1d3"/><stop offset="0.89" stop-color="#fdebeb"/><stop offset="0.89" stop-color="snow"/><stop offset="0.9" stop-color="#fff"/><stop offset="0.9" stop-color="#fef0f0"/><stop offset="0.93" stop-color="#f57f83"/><stop offset="0.94" stop-color="#ef383f"/><stop offset="0.95" stop-color="#ed1c24"/><stop offset="0.96" stop-color="#f14b51"/><stop offset="0.96" stop-color="#f58186"/><stop offset="0.97" stop-color="#f9aeb1"/><stop offset="0.98" stop-color="#fbd1d3"/><stop offset="0.99" stop-color="#fdebeb"/><stop offset="0.99" stop-color="snow"/><stop offset="1" stop-color="#fff"/></linearGradient></defs><path id="Taco_Back" data-name="Taco Back" class="cls-1" d="M7206.16,7201.45a24.73,24.73,0,0,0,3.29-1.23,1.32,1.32,0,0,0,1-1.65c-.48-2.48-5.05-6.06-12.2-3.42" transform="translate(-7186.73 -7189.71)"/><path id="Polka_Salad" data-name="Polka Salad" class="cls-2" d="M7207.07,7200.21a1.18,1.18,0,0,0,1.43.36c.95-.35.95-1.19.32-1.54.14-.71.45-1.73-.65-2.15-.58-.92-.48-1.66-2.31-1.59-.63-.85-1.48-1.19-2.18-.66-.77-.6-1.09-.78-1.79-.41-.92-.47-1.87-.18-1.94.41-1,0-1.17,0-1.18.35" transform="translate(-7186.73 -7189.71)"/><path id="Taco_Front" data-name="Taco Front" class="cls-3" d="M7192.21,7204.7c1,.13,4.36-.68,7.18-1.2,5.63-1.69,7-1.37,7.68-3.29.87-2.39-2.87-5.73-8.8-5.06-4.65.53-6.34,1.87-7.51,4.23C7190,7200.84,7189,7204.25,7192.21,7204.7Z" transform="translate(-7186.73 -7189.71)"/><g id="Dots"><circle class="cls-4" cx="7.87" cy="8.59" r="0.22"/><circle class="cls-4" cx="10.78" cy="8.81" r="0.22"/><circle class="cls-4" cx="17.88" cy="10.62" r="0.22"/><circle class="cls-4" cx="9.48" cy="6.8" r="0.22"/><circle class="cls-4" cx="13.83" cy="11.74" r="0.22"/><circle class="cls-4" cx="17.29" cy="8.59" r="0.22"/><circle class="cls-4" cx="5.84" cy="12.49" r="0.22"/><circle class="cls-4" cx="9.02" cy="10.4" r="0.22"/><circle class="cls-4" cx="5.84" cy="9.96" r="0.22"/><circle class="cls-4" cx="11.52" cy="7.24" r="0.22"/><circle class="cls-4" cx="14.27" cy="7.02" r="0.22"/><circle class="cls-4" cx="15.55" cy="10.18" r="0.22"/><circle class="cls-4" cx="11.74" cy="10.96" r="0.22"/><circle class="cls-4" cx="8.58" cy="12.27" r="0.22"/><circle class="cls-4" cx="14.49" cy="8.59" r="0.22"/></g><path class="cls-5" d="M7192.35,7193.42c-3.61,2.2-5.68,5.35-5,8.25,1,4.18,7.34,6.26,14.19,4.64s11.61-6.32,10.62-10.51c-.55-2.3-3.38-4-6.35-4.73" transform="translate(-7186.73 -7189.71)"/><path class="cls-6" d="M7193.66,7191.64l-.2.06-.2.08a.31.31,0,0,0,0,.08.26.26,0,0,0,0,.11l.4,1.11a.21.21,0,0,1,0,.19.34.34,0,0,1-.16.12h-.08l-.06,0a.13.13,0,0,0,.06,0s0-.05,0-.1L7193,7192l0-.05,0-.05-.12.08-.12.07a.22.22,0,0,1-.07.06.2.2,0,0,1-.09.05.17.17,0,0,1-.1,0,.32.32,0,0,1-.09,0l-.07-.08a.26.26,0,0,1-.05-.09.24.24,0,0,0,.15,0,.55.55,0,0,0,.17-.05,1,1,0,0,0,.19-.08l.18-.09.25-.14.25-.15.07,0,.11-.05a.17.17,0,0,1,.12,0,.07.07,0,0,1,.07.06.08.08,0,0,1,0,.07l0,.06-.06,0Z" transform="translate(-7186.73 -7189.71)"/><path class="cls-6" d="M7195.68,7192.33a.55.55,0,0,1,0,.16.37.37,0,0,1,0,.12.31.31,0,0,1-.07.09l-.09,0a.61.61,0,0,1-.13,0,.43.43,0,0,1-.14,0,.49.49,0,0,1-.13.12.75.75,0,0,1-.18.07l-.17,0-.15,0a.36.36,0,0,1-.12-.08.41.41,0,0,1-.08-.13c-.1-.32.09-.57.59-.73v0a.28.28,0,0,0-.09-.14.16.16,0,0,0-.13,0,.27.27,0,0,0-.16.11.31.31,0,0,1-.17.14.27.27,0,0,1-.24,0,.2.2,0,0,0,.1-.07.35.35,0,0,0,.06-.09.79.79,0,0,1,.12-.15,1,1,0,0,1,.21-.1l.24,0a.49.49,0,0,1,.17.06.58.58,0,0,1,.13.14,1.65,1.65,0,0,1,.09.22c0,.06,0,.13.05.2a2.09,2.09,0,0,0,0,.21s0,.09.05.1a.05.05,0,0,0,0,0,.1.1,0,0,0,.09,0A.26.26,0,0,0,7195.68,7192.33Zm-.61-.17-.16.07a.43.43,0,0,0-.13.09.35.35,0,0,0-.08.13.3.3,0,0,0,0,.16.2.2,0,0,0,.09.11.16.16,0,0,0,.15,0,.56.56,0,0,0,.13-.07.3.3,0,0,0,.1-.14Z" transform="translate(-7186.73 -7189.71)"/><path class="cls-6" d="M7196.84,7191.76a.2.2,0,0,1,0,.08.64.64,0,0,1,0,.07.37.37,0,0,1,0,.21.6.6,0,0,1-.08.16.44.44,0,0,1-.15.12.56.56,0,0,1-.16.07.69.69,0,0,1-.25,0,.57.57,0,0,1-.22-.07.75.75,0,0,1-.19-.17.83.83,0,0,1-.12-.25.74.74,0,0,1,0-.29.62.62,0,0,1,.07-.23.55.55,0,0,1,.16-.18.65.65,0,0,1,.22-.11l.12,0h.1l.09,0a.32.32,0,0,1,.09,0l.07,0h.13a.3.3,0,0,1-.19.19h-.07l-.08,0-.09,0a.21.21,0,0,0-.11,0,.32.32,0,0,0-.2.18.55.55,0,0,0,0,.36.62.62,0,0,0,.18.31.28.28,0,0,0,.27.06.37.37,0,0,0,.25-.18.38.38,0,0,0,.09-.15A.65.65,0,0,0,7196.84,7191.76Z" transform="translate(-7186.73 -7189.71)"/><path class="cls-6" d="M7198.33,7191.39a1.22,1.22,0,0,1,0,.27.72.72,0,0,1-.08.22.73.73,0,0,1-.17.18.85.85,0,0,1-.24.09.62.62,0,0,1-.27,0,.58.58,0,0,1-.22-.08.73.73,0,0,1-.17-.18.64.64,0,0,1-.11-.25.82.82,0,0,1,0-.27.62.62,0,0,1,.07-.23.58.58,0,0,1,.17-.18.68.68,0,0,1,.26-.11.66.66,0,0,1,.28,0,.54.54,0,0,1,.22.09.55.55,0,0,1,.16.18A.74.74,0,0,1,7198.33,7191.39Zm-.32,0a.49.49,0,0,0-.06-.17.41.41,0,0,0-.08-.13.42.42,0,0,0-.12-.08h-.15a.26.26,0,0,0-.14.07.27.27,0,0,0-.09.12.33.33,0,0,0,0,.15,1.1,1.1,0,0,0,0,.18,1.89,1.89,0,0,0,.06.18.73.73,0,0,0,.09.13.25.25,0,0,0,.12.08.38.38,0,0,0,.15,0,.3.3,0,0,0,.14-.06.5.5,0,0,0,.08-.12l0-.16A1.37,1.37,0,0,0,7198,7191.41Z" transform="translate(-7186.73 -7189.71)"/><path class="cls-6" d="M7199.74,7191.56a.21.21,0,0,1-.06.19.37.37,0,0,1-.19.08.08.08,0,0,1-.07,0s0,0-.06,0l.07,0s0-.05,0-.1l-.1-.59a.83.83,0,0,0-.06-.23.13.13,0,0,0-.15-.07.33.33,0,0,0-.13.07.34.34,0,0,0-.09.17l.11.67a.23.23,0,0,1,0,.17s-.07.07-.13.09a.09.09,0,0,1-.07,0s0-.06-.05-.13l-.14-.74a.76.76,0,0,0-.06-.21.18.18,0,0,0-.14-.1l.08,0,.06,0a.4.4,0,0,1,.19,0,.18.18,0,0,1,.14.1.41.41,0,0,1,.12-.14.36.36,0,0,1,.17-.07.34.34,0,0,1,.36.13.28.28,0,0,1,.07-.09l.1-.07.12-.06.11,0a.33.33,0,0,1,.31.09.6.6,0,0,1,.15.37l.06.55a.2.2,0,0,1-.06.18.37.37,0,0,1-.19.08h-.07a.07.07,0,0,1-.05,0,.09.09,0,0,0,.06,0,.09.09,0,0,0,0-.09l-.08-.6a.64.64,0,0,0-.06-.23.12.12,0,0,0-.14-.07.34.34,0,0,0-.14.05.43.43,0,0,0-.14.13.78.78,0,0,1,.05.18Z" transform="translate(-7186.73 -7189.71)"/><path class="cls-6" d="M7200.76,7190.74a1.09,1.09,0,0,0,0-.22.14.14,0,0,0-.08-.11l.07,0h.07a.29.29,0,0,1,.19,0c.05,0,.08.08.09.17v.08a.06.06,0,0,0,0,0,.25.25,0,0,0,0,.08l.06.62a.18.18,0,0,1-.06.18.3.3,0,0,1-.18.08h-.08l-.05,0,.07,0a.09.09,0,0,0,0-.09Zm.26-.75a.17.17,0,0,1,0,.07.16.16,0,0,1,0,.07l-.06.05-.08,0a.26.26,0,0,1-.15,0,.11.11,0,0,1-.07-.11s0,0,0-.07a.16.16,0,0,1,0-.07s0,0,.06-.06.05,0,.08,0a.33.33,0,0,1,.15,0A.14.14,0,0,1,7201,7190Z" transform="translate(-7186.73 -7189.71)"/><path class="cls-6" d="M7202.62,7191.28a.21.21,0,0,1-.07.17.29.29,0,0,1-.2.07.08.08,0,0,1-.07,0,.11.11,0,0,1-.05,0s0,0,.06,0,0,0,0-.09l0-.55a.66.66,0,0,1,0-.14s0-.09,0-.12a.27.27,0,0,0-.07-.08.18.18,0,0,0-.13,0H7202l-.08,0a.46.46,0,0,0-.07.07l-.06.1.06.67a.27.27,0,0,1,0,.17.17.17,0,0,1-.14.08.11.11,0,0,1-.07,0,.29.29,0,0,1,0-.14l-.06-.75a1,1,0,0,0,0-.22.19.19,0,0,0-.12-.11l.07,0h.07a.58.58,0,0,1,.19,0,.24.24,0,0,1,.13.11.31.31,0,0,1,.15-.12.33.33,0,0,1,.19-.06.42.42,0,0,1,.36.12.76.76,0,0,1,.12.43Z" transform="translate(-7186.73 -7189.71)"/><path class="cls-6" d="M7203.12,7189.86a.18.18,0,0,0-.12-.12l.08,0h.19a.17.17,0,0,1,.1,0,.27.27,0,0,1,.08.07.18.18,0,0,1,0,.11s0,0,0,0v0a.06.06,0,0,0,0,0v.19l.14,0h.14s.05,0,.07,0h.07l.05,0s0,0,0,.06a.08.08,0,0,1,0,.07.15.15,0,0,1-.08,0l-.12.07-.1.06s0,0,0-.05l.07-.07h-.15l-.1,0v.65a.46.46,0,0,0,0,.14.28.28,0,0,0,.05.08.11.11,0,0,0,.07,0h.09l.1,0a.24.24,0,0,0,.09-.06.22.22,0,0,1,0,.08l-.08,0a.16.16,0,0,1-.09,0h-.24a.23.23,0,0,1-.12-.06.24.24,0,0,1-.09-.11.78.78,0,0,1,0-.19l0-.59H7203a.32.32,0,0,1-.14,0,.22.22,0,0,1-.08-.16h.17l.19,0v-.23A.46.46,0,0,0,7203.12,7189.86Z" transform="translate(-7186.73 -7189.71)"/><path class="cls-6" d="M7205.1,7191.15a.25.25,0,0,1-.06.16.32.32,0,0,1-.13.1.49.49,0,0,1-.17.06l-.18,0a.52.52,0,0,1-.18,0,.35.35,0,0,1-.14-.06.94.94,0,0,1-.1-.1.32.32,0,0,1,0-.14v-.06a.52.52,0,0,1,0-.11.57.57,0,0,0,.08.13l.09.1.11.06.12,0a.52.52,0,0,0,.18,0,.14.14,0,0,0,.07-.13c0-.08,0-.15-.14-.21l-.18-.1-.15-.09a.29.29,0,0,1-.11-.11.26.26,0,0,1-.06-.13.68.68,0,0,1,0-.14.44.44,0,0,1,.09-.11.46.46,0,0,1,.14-.07.62.62,0,0,1,.2,0h.1l.14,0,.07,0,.06,0a.06.06,0,0,0,.06,0l.08,0a1,1,0,0,1-.1.17.15.15,0,0,1-.12.07l-.06,0-.06,0-.07,0-.09,0a.21.21,0,0,0-.12,0,.18.18,0,0,0,0,.09.12.12,0,0,0,0,.09.46.46,0,0,0,.07.07.31.31,0,0,0,.1.05l.08,0,.13.07a.36.36,0,0,1,.12.08.52.52,0,0,1,.1.11A.35.35,0,0,1,7205.1,7191.15Z" transform="translate(-7186.73 -7189.71)"/></svg>