<svg id="Lager_1" data-name="Lager 1" xmlns="http://www.w3.org/2000/svg" xmlns:xlink="http://www.w3.org/1999/xlink" viewBox="0 0 26.07 17.65"><defs><style>.cls-1{fill:#b79e4e;}.cls-1,.cls-3{stroke:#000;stroke-width:0.5px;}.cls-1,.cls-3,.cls-5{stroke-miterlimit:10;}.cls-2{fill:url(#Namnlös_övertoning_235);}.cls-3{fill:#eace59;}.cls-4{fill:#ba990f;}.cls-5{fill:none;stroke:#cccc09;}.cls-6{fill:#cccc09;}</style><linearGradient id="Namnlös_övertoning_235" x1="7200.03" y1="7188.75" x2="7210.88" y2="7192.7" gradientUnits="userSpaceOnUse"><stop offset="0" stop-color="#fff"/><stop offset="0.01" stop-color="#fffbfb"/><stop offset="0.01" stop-color="#feeeef"/><stop offset="0.02" stop-color="#fcd9da"/><stop offset="0.03" stop-color="#fabbbe"/><stop offset="0.03" stop-color="#f79599"/><stop offset="0.04" stop-color="#f3676c"/><stop offset="0.05" stop-color="#ef3038"/><stop offset="0.05" stop-color="#ed1c24"/><stop offset="0.06" stop-color="#f14b51"/><stop offset="0.06" stop-color="#f58186"/><stop offset="0.07" stop-color="#f9aeb1"/><stop offset="0.08" stop-color="#fbd1d3"/><stop offset="0.09" stop-color="#fdebeb"/><stop offset="0.09" stop-color="snow"/><stop offset="0.1" stop-color="#fff"/><stop offset="0.1" stop-color="#fef0f0"/><stop offset="0.13" stop-color="#f57f83"/><stop offset="0.14" stop-color="#ef383f"/><stop offset="0.15" stop-color="#ed1c24"/><stop offset="0.16" stop-color="#f14b51"/><stop offset="0.16" stop-color="#f58186"/><stop offset="0.17" stop-color="#f9aeb1"/><stop offset="0.18" stop-color="#fbd1d3"/><stop offset="0.19" stop-color="#fdebeb"/><stop offset="0.19" stop-color="snow"/><stop offset="0.2" stop-color="#fff"/><stop offset="0.2" stop-color="#fef0f0"/><stop offset="0.23" stop-color="#f57f83"/><stop offset="0.24" stop-color="#ef383f"/><stop offset="0.25" stop-color="#ed1c24"/><stop offset="0.26" stop-color="#f14b51"/><stop offset="0.26" stop-color="#f58186"/><stop offset="0.27" stop-color="#f9aeb1"/><stop offset="0.28" stop-color="#fbd1d3"/><stop offset="0.29" stop-color="#fdebeb"/><stop offset="0.29" stop-color="snow"/><stop offset="0.3" stop-color="#fff"/><stop offset="0.3" stop-color="#fef0f0"/><stop offset="0.33" stop-color="#f57f83"/><stop offset="0.34" stop-color="#ef383f"/><stop offset="0.35" stop-color="#ed1c24"/><stop offset="0.36" stop-color="#f14b51"/><stop offset="0.36" stop-color="#f58186"/><stop offset="0.37" stop-color="#f9aeb1"/><stop offset="0.38" stop-color="#fbd1d3"/><stop offset="0.39" stop-color="#fdebeb"/><stop offset="0.39" stop-color="snow"/><stop offset="0.4" stop-color="#fff"/><stop offset="0.4" stop-color="#fef0f0"/><stop offset="0.43" stop-color="#f57f83"/><stop offset="0.44" stop-color="#ef383f"/><stop offset="0.45" stop-color="#ed1c24"/><stop offset="0.46" stop-color="#f14b51"/><stop offset="0.46" stop-color="#f58186"/><stop offset="0.47" stop-color="#f9aeb1"/><stop offset="0.48" stop-color="#fbd1d3"/><stop offset="0.49" stop-color="#fdebeb"/><stop offset="0.49" stop-color="snow"/><stop offset="0.5" stop-color="#fff"/><stop offset="0.5" stop-color="#fef0f0"/><stop offset="0.53" stop-color="#f57f83"/><stop offset="0.54" stop-color="#ef383f"/><stop offset="0.55" stop-color="#ed1c24"/><stop offset="0.56" stop-color="#f14b51"/><stop offset="0.56" stop-color="#f58186"/><stop offset="0.57" stop-color="#f9aeb1"/><stop offset="0.58" stop-color="#fbd1d3"/><stop offset="0.59" stop-color="#fdebeb"/><stop offset="0.59" stop-color="snow"/><stop offset="0.6" stop-color="#fff"/><stop offset="0.6" stop-color="#fef0f0"/><stop offset="0.63" stop-color="#f57f83"/><stop offset="0.64" stop-color="#ef383f"/><stop offset="0.65" stop-color="#ed1c24"/><stop offset="0.66" stop-color="#f14b51"/><stop offset="0.66" stop-color="#f58186"/><stop offset="0.67" stop-color="#f9aeb1"/><stop offset="0.68" stop-color="#fbd1d3"/><stop offset="0.69" stop-color="#fdebeb"/><stop offset="0.69" stop-color="snow"/><stop offset="0.7" stop-color="#fff"/><stop offset="0.7" stop-color="#fef0f0"/><stop offset="0.73" stop-color="#f57f83"/><stop offset="0.74" stop-color="#ef383f"/><stop offset="0.75" stop-color="#ed1c24"/><stop offset="0.76" stop-color="#f14b51"/><stop offset="0.76" stop-color="#f58186"/><stop offset="0.77" stop-color="#f9aeb1"/><stop offset="0.78" stop-color="#fbd1d3"/><stop offset="0.79" stop-color="#fdebeb"/><stop offset="0.79" stop-color="snow"/><stop offset="0.8" stop-color="#fff"/><stop offset="0.8" stop-color="#fef0f0"/><stop offset="0.83" stop-color="#f57f83"/><stop offset="0.84" stop-color="#ef383f"/><stop offset="0.85" stop-color="#ed1c24"/><stop offset="0.86" stop-color="#f14b51"/><stop offset="0.86" stop-color="#f58186"/><stop offset="0.87" stop-color="#f9aeb1"/><stop offset="0.88" stop-color="#fbd1d3"/><stop offset="0.89" stop-color="#fdebeb"/><stop offset="0.89" stop-color="snow"/><stop offset="0.9" stop-color="#fff"/><stop offset="0.9" stop-color="#fef0f0"/><stop offset="0.93" stop-color="#f57f83"/><stop offset="0.94" stop-color="#ef383f"/><stop offset="0.95" stop-color="#ed1c24"/><stop offset="0.96" stop-color="#f14b51"/><stop offset="0.96" stop-color="#f58186"/><stop offset="0.97" stop-color="#f9aeb1"/><stop offset="0.98" stop-color="#fbd1d3"/><stop offset="0.99" stop-color="#fdebeb"/><stop offset="0.99" stop-color="snow"/><stop offset="1" stop-color="#fff"/></linearGradient></defs><path id="Taco_Back" data-name="Taco Back" class="cls-1" d="M7207.4,7195.37a25,25,0,0,0,3.28-1.23,1.33,1.33,0,0,0,1-1.65c-.49-2.48-5.05-6.06-12.21-3.42" transform="translate(-7187.96 -7183.63)"/><path id="Polka_Salad" data-name="Polka Salad" class="cls-2" d="M7208.31,7194.13a1.19,1.19,0,0,0,1.43.37c.94-.36.95-1.2.31-1.55.14-.71.46-1.73-.65-2.15-.58-.91-.47-1.65-2.3-1.58-.64-.86-1.48-1.2-2.19-.67-.77-.6-1.09-.77-1.79-.41-.92-.47-1.86-.18-1.94.41-1,0-1.17,0-1.18.35" transform="translate(-7187.96 -7183.63)"/><path id="Taco_Front" data-name="Taco Front" class="cls-3" d="M7193.44,7198.62c1,.14,4.36-.68,7.18-1.2,5.63-1.69,7-1.37,7.69-3.29.86-2.39-2.88-5.73-8.81-5.06-4.65.53-6.34,1.87-7.5,4.23C7191.25,7194.76,7190.23,7198.17,7193.44,7198.62Z" transform="translate(-7187.96 -7183.63)"/><g id="Dots"><circle class="cls-4" cx="7.87" cy="8.59" r="0.22"/><circle class="cls-4" cx="10.78" cy="8.81" r="0.22"/><circle class="cls-4" cx="17.88" cy="10.62" r="0.22"/><circle class="cls-4" cx="9.48" cy="6.8" r="0.22"/><circle class="cls-4" cx="13.83" cy="11.74" r="0.22"/><circle class="cls-4" cx="17.29" cy="8.59" r="0.22"/><circle class="cls-4" cx="5.84" cy="12.49" r="0.22"/><circle class="cls-4" cx="9.02" cy="10.4" r="0.22"/><circle class="cls-4" cx="5.84" cy="9.96" r="0.22"/><circle class="cls-4" cx="11.52" cy="7.24" r="0.22"/><circle class="cls-4" cx="14.27" cy="7.02" r="0.22"/><circle class="cls-4" cx="15.55" cy="10.18" r="0.22"/><circle class="cls-4" cx="11.74" cy="10.96" r="0.22"/><circle class="cls-4" cx="8.58" cy="12.27" r="0.22"/><circle class="cls-4" cx="14.49" cy="8.59" r="0.22"/></g><path class="cls-5" d="M7193.58,7187.34c-3.61,2.2-5.68,5.35-5,8.25,1,4.18,7.34,6.26,14.19,4.65s11.61-6.33,10.62-10.51c-.54-2.31-3.37-4-6.35-4.73" transform="translate(-7187.96 -7183.63)"/><path class="cls-6" d="M7194.89,7185.56l-.2.06-.2.08s0,.05,0,.08a.35.35,0,0,0,0,.12l.4,1.1a.18.18,0,0,1,0,.19.29.29,0,0,1-.16.12h-.07s-.05,0-.06,0a.1.1,0,0,0,0,0s0-.05,0-.09l-.45-1.22,0,0s0,0,0,0l-.12.07-.11.08-.08.06-.09,0a.16.16,0,0,1-.1,0,.11.11,0,0,1-.08,0l-.08-.07a.31.31,0,0,1-.05-.1.25.25,0,0,0,.15,0l.17,0,.19-.08.18-.1.26-.14.24-.15.07,0,.11-.05a.25.25,0,0,1,.12,0,.07.07,0,0,1,.07.06.08.08,0,0,1,0,.07s0,0,0,.06l-.06,0Z" transform="translate(-7187.96 -7183.63)"/><path class="cls-6" d="M7196.91,7186.26a.5.5,0,0,1,0,.16.25.25,0,0,1,0,.12.27.27,0,0,1-.07.08.19.19,0,0,1-.09.05l-.13,0a.43.43,0,0,1-.14,0,.37.37,0,0,1-.13.12l-.18.08-.17,0-.15,0a.42.42,0,0,1-.12-.08.23.23,0,0,1-.07-.13c-.11-.32.08-.57.58-.73v0a.28.28,0,0,0-.09-.14.15.15,0,0,0-.13,0,.38.38,0,0,0-.16.11.37.37,0,0,1-.16.15.3.3,0,0,1-.25-.05.29.29,0,0,0,.1-.06.47.47,0,0,0,.06-.09.37.37,0,0,1,.13-.15.54.54,0,0,1,.2-.1.75.75,0,0,1,.24,0,.38.38,0,0,1,.17.06.35.35,0,0,1,.13.14.85.85,0,0,1,.09.22,1.17,1.17,0,0,1,.05.2,1.6,1.6,0,0,0,.05.21.38.38,0,0,0,.05.11l.05,0a.14.14,0,0,0,.09-.05A.27.27,0,0,0,7196.91,7186.26Zm-.61-.18-.16.07-.13.09a.35.35,0,0,0-.08.13.3.3,0,0,0,0,.16.23.23,0,0,0,.09.12.19.19,0,0,0,.15,0,.33.33,0,0,0,.13-.07.3.3,0,0,0,.1-.14Z" transform="translate(-7187.96 -7183.63)"/><path class="cls-6" d="M7198.07,7185.68a.3.3,0,0,1,0,.08.19.19,0,0,1,0,.07.37.37,0,0,1,0,.21.38.38,0,0,1-.08.17l-.14.11a.41.41,0,0,1-.17.07.65.65,0,0,1-.24,0,.62.62,0,0,1-.23-.07.7.7,0,0,1-.19-.16.89.89,0,0,1-.12-.26.71.71,0,0,1,0-.28.62.62,0,0,1,.08-.24.52.52,0,0,1,.15-.18.91.91,0,0,1,.22-.11l.13,0h.1l.08,0,.09,0,.07,0a.09.09,0,0,0,.09,0h0c0,.11-.11.18-.19.19h-.07l-.08,0-.09,0a.22.22,0,0,0-.11,0,.28.28,0,0,0-.2.17.64.64,0,0,0,0,.36.48.48,0,0,0,.18.31.27.27,0,0,0,.27.06.38.38,0,0,0,.13-.06l.12-.11a.8.8,0,0,0,.08-.16A.45.45,0,0,0,7198.07,7185.68Z" transform="translate(-7187.96 -7183.63)"/><path class="cls-6" d="M7199.56,7185.31a.82.82,0,0,1,0,.27.63.63,0,0,1-.08.23.85.85,0,0,1-.16.17.82.82,0,0,1-.25.1.77.77,0,0,1-.26,0,.79.79,0,0,1-.23-.09.59.59,0,0,1-.17-.18.63.63,0,0,1-.1-.25.59.59,0,0,1,0-.26.49.49,0,0,1,.08-.24.48.48,0,0,1,.17-.18.69.69,0,0,1,.53-.11.73.73,0,0,1,.22.09.63.63,0,0,1,.17.19A.81.81,0,0,1,7199.56,7185.31Zm-.32,0a.84.84,0,0,0-.05-.17l-.09-.13a.24.24,0,0,0-.12-.07.24.24,0,0,0-.15,0,.31.31,0,0,0-.14.07.25.25,0,0,0-.08.12.37.37,0,0,0,0,.15.55.55,0,0,0,0,.18,1.89,1.89,0,0,0,.06.18.73.73,0,0,0,.09.13.42.42,0,0,0,.12.08.38.38,0,0,0,.15,0,.3.3,0,0,0,.14-.06.36.36,0,0,0,.08-.12.38.38,0,0,0,0-.16A1.37,1.37,0,0,0,7199.24,7185.33Z" transform="translate(-7187.96 -7183.63)"/><path class="cls-6" d="M7201,7185.49a.2.2,0,0,1-.06.18.48.48,0,0,1-.19.09h-.07a.11.11,0,0,1,0,0l.06,0s0-.05,0-.09l-.1-.6a.64.64,0,0,0-.06-.23.13.13,0,0,0-.15-.07.25.25,0,0,0-.12.07.32.32,0,0,0-.1.18l.11.66a.24.24,0,0,1,0,.17.18.18,0,0,1-.14.09l-.07,0a.27.27,0,0,1-.05-.14l-.13-.74a.73.73,0,0,0-.07-.21.18.18,0,0,0-.13-.1l.07,0,.07,0a.54.54,0,0,1,.18,0,.17.17,0,0,1,.14.1.53.53,0,0,1,.12-.14.36.36,0,0,1,.18-.07.33.33,0,0,1,.35.13l.07-.09.1-.07.12-.05.11,0a.33.33,0,0,1,.31.09.6.6,0,0,1,.15.37l.07.55a.2.2,0,0,1-.06.18.4.4,0,0,1-.2.08.09.09,0,0,1-.07,0,.1.1,0,0,1-.05,0,.09.09,0,0,0,.06,0s0,0,0-.09l-.08-.6a.7.7,0,0,0-.06-.23c0-.06-.07-.08-.14-.07a.34.34,0,0,0-.14.05.4.4,0,0,0-.13.13.8.8,0,0,1,0,.18Z" transform="translate(-7187.96 -7183.63)"/><path class="cls-6" d="M7202,7184.66c0-.09,0-.16,0-.22a.2.2,0,0,0-.09-.11l.07,0h.07a.29.29,0,0,1,.19,0,.2.2,0,0,1,.09.17v.21l.06.61a.21.21,0,0,1-.05.18.3.3,0,0,1-.19.08H7202a.11.11,0,0,1-.05,0,.09.09,0,0,0,.06,0s0,0,0-.09Zm.26-.75a.11.11,0,0,1,0,.08.21.21,0,0,1,0,.06l-.06.05-.08,0a.32.32,0,0,1-.14,0,.12.12,0,0,1-.08-.1.22.22,0,0,1,0-.08.09.09,0,0,1,0-.07.17.17,0,0,1,.06-.06l.09,0a.28.28,0,0,1,.15,0A.12.12,0,0,1,7202.25,7183.91Z" transform="translate(-7187.96 -7183.63)"/><path class="cls-6" d="M7203.85,7185.2a.2.2,0,0,1-.07.18.4.4,0,0,1-.2.07l-.07,0-.05,0a.11.11,0,0,0,.07,0s0,0,0-.09l0-.55s0-.09,0-.14l0-.12a.27.27,0,0,0-.07-.08.18.18,0,0,0-.13,0h-.07l-.08.05a.45.45,0,0,0-.07.07.23.23,0,0,0-.05.1l.05.66a.32.32,0,0,1,0,.18s-.07.06-.14.07a.09.09,0,0,1-.06,0,.21.21,0,0,1,0-.14l-.07-.75a.65.65,0,0,0-.05-.22.19.19,0,0,0-.12-.11l.08,0,.06,0a.58.58,0,0,1,.19,0,.22.22,0,0,1,.13.12.47.47,0,0,1,.15-.13.35.35,0,0,1,.19-.06.42.42,0,0,1,.36.12.69.69,0,0,1,.13.43Z" transform="translate(-7187.96 -7183.63)"/><path class="cls-6" d="M7204.36,7183.78a.23.23,0,0,0-.12-.12l.08,0h.18a.35.35,0,0,1,.11,0,.23.23,0,0,1,.07.07.2.2,0,0,1,0,.11v.08a.11.11,0,0,1,0,0v.18l.13,0h.22l.06,0a.05.05,0,0,1,.05,0,.08.08,0,0,1,0,.06.11.11,0,0,1,0,.08l-.08,0-.12.07-.11.06,0,0,.07-.06h-.15l-.1,0,0,.65a.28.28,0,0,0,0,.14.16.16,0,0,0,.05.08l.07,0h.18a.18.18,0,0,0,.09-.07.14.14,0,0,1-.05.08l-.08.06-.09,0h-.1a.33.33,0,0,1-.14,0,.34.34,0,0,1-.12-.06s-.06-.06-.09-.11a.48.48,0,0,1,0-.18l0-.6h-.15a.32.32,0,0,1-.14,0,.22.22,0,0,1-.08-.16.47.47,0,0,0,.17,0l.19,0V7184A.69.69,0,0,0,7204.36,7183.78Z" transform="translate(-7187.96 -7183.63)"/><path class="cls-6" d="M7206.33,7185.07a.28.28,0,0,1-.05.16.53.53,0,0,1-.14.11l-.17.05a.55.55,0,0,1-.18,0l-.18,0a.61.61,0,0,1-.14-.07.28.28,0,0,1-.09-.1.22.22,0,0,1,0-.13.26.26,0,0,1,0-.07.52.52,0,0,1,0-.11.4.4,0,0,0,.07.13.32.32,0,0,0,.1.1.24.24,0,0,0,.11.06l.11,0a.48.48,0,0,0,.18,0,.13.13,0,0,0,.08-.13.23.23,0,0,0-.14-.2l-.19-.1-.15-.1a.55.55,0,0,1-.11-.1.24.24,0,0,1-.05-.14.19.19,0,0,1,0-.13.18.18,0,0,1,.08-.11l.14-.08.2,0h.11l.14,0,.06,0h.06a.08.08,0,0,0,.07,0l.07,0a.69.69,0,0,1-.1.17.13.13,0,0,1-.11.07l-.07,0-.06,0-.06,0-.1,0a.16.16,0,0,0-.12,0,.12.12,0,0,0,0,.09.19.19,0,0,0,0,.08.27.27,0,0,0,.08.07l.09.06.09,0,.13.07.12.08a.31.31,0,0,1,.09.11A.38.38,0,0,1,7206.33,7185.07Z" transform="translate(-7187.96 -7183.63)"/></svg>